<?xml version="1.0" encoding="UTF-8" standalone="no"?>
<svg height="48" id="svg1800" inkscape:output_extension="org.inkscape.output.svg.inkscape" inkscape:version="0.45.1" sodipodi:docbase="/Users/marco/Desktop" sodipodi:docname="Emblem-what3.svg" sodipodi:version="0.32" version="1.0" width="48" xmlns="http://www.w3.org/2000/svg" xmlns:cc="http://web.resource.org/cc/" xmlns:dc="http://purl.org/dc/elements/1.1/" xmlns:inkscape="http://www.inkscape.org/namespaces/inkscape" xmlns:rdf="http://www.w3.org/1999/02/22-rdf-syntax-ns#" xmlns:sodipodi="http://sodipodi.sourceforge.net/DTD/sodipodi-0.dtd" xmlns:svg="http://www.w3.org/2000/svg" xmlns:xlink="http://www.w3.org/1999/xlink">
  <metadata>
    <rdf:RDF xmlns:cc="http://web.resource.org/cc/" xmlns:dc="http://purl.org/dc/elements/1.1/" xmlns:rdf="http://www.w3.org/1999/02/22-rdf-syntax-ns#">
      <cc:Work rdf:about="">
        <dc:title></dc:title>
        <dc:description></dc:description>
        <dc:subject>
          <rdf:Bag>
            <rdf:li>unsorted</rdf:li>
          </rdf:Bag>
        </dc:subject>
        <dc:publisher>
          <cc:Agent rdf:about="http://www.openclipart.org/">
            <dc:title>Open Clip Art Library, Source: Tango harm-on-icons, Source: Tango harm-on-icons, Source: Tango harm-on-icons, Source: Tango harm-on-icons, Source: Tango harm-on-icons</dc:title>
          </cc:Agent>
        </dc:publisher>
        <dc:creator>
          <cc:Agent>
            <dc:title></dc:title>
          </cc:Agent>
        </dc:creator>
        <dc:rights>
          <cc:Agent>
            <dc:title></dc:title>
          </cc:Agent>
        </dc:rights>
        <dc:date></dc:date>
        <dc:format>image/svg+xml</dc:format>
        <dc:type rdf:resource="http://purl.org/dc/dcmitype/StillImage"/>
        <cc:license rdf:resource="http://creativecommons.org/licenses/by/3.0/"/>
        <dc:language>en</dc:language>
      </cc:Work>
    </rdf:RDF>
  </metadata>
  <sodipodi:namedview bordercolor="#666666" borderopacity="1.0" gridtolerance="10.0" guidetolerance="10.0" id="base" inkscape:current-layer="svg1800" inkscape:cx="24" inkscape:cy="21.940362" inkscape:pageopacity="0.0" inkscape:pageshadow="2" inkscape:window-height="581" inkscape:window-width="750" inkscape:window-x="417" inkscape:window-y="10" inkscape:zoom="7.875" objecttolerance="10.0" pagecolor="#ffffff"/>
  <defs id="defs3">
    <linearGradient id="linearGradient3101">
      <stop id="stop3103" offset="0" style="stop-color:#000000;stop-opacity:1"/>
      <stop id="stop3105" offset="1" style="stop-color:#000000;stop-opacity:0"/>
    </linearGradient>
    <radialGradient cx="17.3125" cy="25.53125" fx="17.3125" fy="25.53125" gradientTransform="matrix(1,0,0,0.351613,0,16.55413)" gradientUnits="userSpaceOnUse" id="radialGradient3107" r="9.6875" xlink:href="#linearGradient3101"/>
    <radialGradient cx="17.3125" cy="25.53125" fx="17.3125" fy="25.53125" gradientTransform="matrix(2.182912,0,0,0.7675402,-13.50372,21.786089)" gradientUnits="userSpaceOnUse" id="radialGradient3193" inkscape:collect="always" r="9.6875" xlink:href="#linearGradient3101"/>
  </defs>
  <path d="M 45.434904,41.382352 C 45.434904,45.48889 35.967089,48.817896 24.287944,48.817896 C 12.608799,48.817896 3.140984,45.48889 3.140984,41.382352 C 3.140984,37.275814 12.608799,33.946808 24.287944,33.946808 C 35.967089,33.946808 45.434904,37.275814 45.434904,41.382352 L 45.434904,41.382352 z " id="path3099" style="opacity:0.40909089;color:#000000;fill:url(#radialGradient3193);fill-opacity:1;fill-rule:nonzero;stroke:none;stroke-width:1.10533953;stroke-linecap:butt;stroke-linejoin:miter;marker:none;marker-start:none;marker-mid:none;marker-end:none;stroke-miterlimit:4;stroke-dasharray:none;stroke-dashoffset:0;stroke-opacity:1;visibility:visible;display:inline;overflow:visible"/>
  <path d="M 45.088191,21.403809 C 45.088191,32.885844 35.780157,42.193873 24.298113,42.193873 C 12.81607,42.193873 3.5080354,32.885844 3.5080354,21.403809 C 3.5080354,9.9217735 12.81607,0.61374506 24.298113,0.61374506 C 35.780157,0.61374506 45.088191,9.9217735 45.088191,21.403809 L 45.088191,21.403809 z " id="path1650" style="fill:#f57900;fill-opacity:1;fill-rule:nonzero;stroke:#914900;stroke-width:0.94500303;stroke-linecap:round;stroke-linejoin:round;stroke-miterlimit:4;stroke-dasharray:none;stroke-dashoffset:0;stroke-opacity:1"/>
  <path d="M 44.555332,21.312495 C 44.555332,32.42327 35.548267,41.430334 24.437488,41.430334 C 13.326709,41.430334 4.3196438,32.42327 4.3196438,21.312495 C 4.3196438,10.201719 13.326709,1.1946561 24.437488,1.1946561 C 35.548267,1.1946561 44.555332,10.201719 44.555332,21.312495 L 44.555332,21.312495 z " id="path3392" style="fill:none;fill-opacity:1;fill-rule:nonzero;stroke:#fcaf3e;stroke-width:0.91444719;stroke-linecap:round;stroke-linejoin:round;stroke-miterlimit:4;stroke-dasharray:none;stroke-dashoffset:0;stroke-opacity:1"/>
  <path d="M 43.676426,20.47678 C 43.676426,31.307396 37.624257,16.170581 25.001688,20.863168 C 12.279172,25.592912 4.4350535,31.307396 4.4350535,20.47678 C 4.4350535,9.6461627 13.22512,0.85609769 24.05574,0.85609769 C 34.886359,0.85609769 43.676426,9.6461627 43.676426,20.47678 z " id="path3068" style="fill:#fffeff;fill-opacity:0.21390375;fill-rule:nonzero;stroke:none;stroke-width:1;stroke-linecap:round;stroke-linejoin:round;stroke-miterlimit:4;stroke-dashoffset:0;stroke-opacity:1"/>
  <path d="M 10.599609,14.880371 L 12.433594,14.880371 L 12.433594,17.071777 L 11.958984,21.103027 L 11.085938,21.103027 L 10.599609,17.071777 L 10.599609,14.880371 M 10.640625,21.794434 L 12.386719,21.794434 L 12.386719,23.487793 L 10.640625,23.487793 L 10.640625,21.794434 M 16.125,21.794434 L 17.871094,21.794434 L 17.871094,23.487793 L 16.125,23.487793 L 16.125,21.794434 M 13.986328,17.575684 C 14.033202,16.462409 14.421874,15.673348 15.152344,15.208496 C 15.613279,14.91163 16.179685,14.763192 16.851562,14.763184 C 17.734371,14.763192 18.466792,14.97413 19.048828,15.395996 C 19.634759,15.817879 19.927728,16.442878 19.927734,17.270996 C 19.927728,17.778814 19.800775,18.206548 19.546875,18.554199 C 19.398431,18.765141 19.113275,19.034672 18.691406,19.362793 L 18.275391,19.685059 C 18.048823,19.860843 17.898433,20.065921 17.824219,20.300293 C 17.777339,20.448734 17.751949,20.679202 17.748047,20.991699 L 16.166016,20.991699 C 16.18945,20.331546 16.25195,19.876468 16.353516,19.626465 C 16.455075,19.372563 16.716793,19.081547 17.138672,18.753418 L 17.566406,18.419434 C 17.707027,18.31397 17.820308,18.198736 17.90625,18.07373 C 18.062495,17.858892 18.14062,17.622564 18.140625,17.364746 C 18.14062,17.067878 18.05273,16.798347 17.876953,16.556152 C 17.705074,16.310066 17.388668,16.187019 16.927734,16.187012 C 16.474606,16.187019 16.152341,16.337409 15.960938,16.638184 C 15.773435,16.938971 15.679685,17.251471 15.679688,17.575684 L 13.986328,17.575684 M 21.919922,14.880371 L 23.753906,14.880371 L 23.753906,17.071777 L 23.279297,21.103027 L 22.40625,21.103027 L 21.919922,17.071777 L 21.919922,14.880371 M 21.960938,21.794434 L 23.707031,21.794434 L 23.707031,23.487793 L 21.960938,23.487793 L 21.960938,21.794434" id="flowRoot2176" style="fill:#ffffff;fill-opacity:1" transform="matrix(2.1019825,0,0,2.3048965,-11.876831,-23.703492)"/>
</svg>
