<?xml version="1.0" encoding="UTF-8" standalone="no"?>
<!-- Created with Inkscape (http://www.inkscape.org/) --><svg height="48px" id="svg7397" inkscape:output_extension="org.inkscape.output.svg.inkscape" inkscape:version="0.46" sodipodi:docname="drawing.svg" sodipodi:version="0.32" width="48px" xmlns="http://www.w3.org/2000/svg" xmlns:cc="http://creativecommons.org/ns#" xmlns:dc="http://purl.org/dc/elements/1.1/" xmlns:inkscape="http://www.inkscape.org/namespaces/inkscape" xmlns:rdf="http://www.w3.org/1999/02/22-rdf-syntax-ns#" xmlns:sodipodi="http://sodipodi.sourceforge.net/DTD/sodipodi-0.dtd" xmlns:svg="http://www.w3.org/2000/svg" xmlns:xlink="http://www.w3.org/1999/xlink">
  <metadata>
    <rdf:RDF xmlns:cc="http://web.resource.org/cc/" xmlns:dc="http://purl.org/dc/elements/1.1/" xmlns:rdf="http://www.w3.org/1999/02/22-rdf-syntax-ns#">
      <cc:Work rdf:about="">
        <dc:title></dc:title>
        <dc:description></dc:description>
        <dc:subject>
          <rdf:Bag>
            <rdf:li>unsorted</rdf:li>
          </rdf:Bag>
        </dc:subject>
        <dc:publisher>
          <cc:Agent rdf:about="http://www.openclipart.org/">
            <dc:title>Open Clip Art Library, Source: GNOME-Colors, Source: GNOME-Colors, Source: GNOME-Colors, Source: GNOME-Colors, Source: GNOME-Colors, Source: GNOME-Colors, Source: GNOME-Colors, Source: GNOME-Colors, Source: GNOME-Colors, Source: GNOME-Colors, Source: GNOME-Colors</dc:title>
          </cc:Agent>
        </dc:publisher>
        <dc:creator>
          <cc:Agent>
            <dc:title></dc:title>
          </cc:Agent>
        </dc:creator>
        <dc:rights>
          <cc:Agent>
            <dc:title></dc:title>
          </cc:Agent>
        </dc:rights>
        <dc:date></dc:date>
        <dc:format>image/svg+xml</dc:format>
        <dc:type rdf:resource="http://purl.org/dc/dcmitype/StillImage"/>
        <cc:license rdf:resource="http://creativecommons.org/licenses/GPL/2.0/"/>
        <dc:language>en</dc:language>
      </cc:Work>
    </rdf:RDF>
  </metadata>
  <defs id="defs7399">
    <linearGradient id="linearGradient6490" inkscape:collect="always">
      <stop id="stop6492" offset="0" style="stop-color:white;stop-opacity:1;"/>
      <stop id="stop6494" offset="1" style="stop-color:white;stop-opacity:0;"/>
    </linearGradient>
    <linearGradient gradientTransform="translate(2.15e-4,-8.7e-6)" gradientUnits="userSpaceOnUse" id="linearGradient6496" inkscape:collect="always" x1="35.283695" x2="35.194096" xlink:href="#linearGradient6490" y1="7.9827366" y2="6.3250184"/>
    <linearGradient gradientTransform="translate(-49,49)" gradientUnits="userSpaceOnUse" id="linearGradient3497" inkscape:collect="always" x1="36.5625" x2="36.5625" xlink:href="#linearGradient3234" y1="-16.999678" y2="-20.594276"/>
    <linearGradient id="linearGradient3234" inkscape:collect="always">
      <stop id="stop3236" offset="0" style="stop-color:white;stop-opacity:1;"/>
      <stop id="stop3238" offset="1" style="stop-color:white;stop-opacity:0;"/>
    </linearGradient>
    <linearGradient gradientTransform="translate(-26,49)" gradientUnits="userSpaceOnUse" id="linearGradient3499" inkscape:collect="always" x1="36.5625" x2="36.5625" xlink:href="#linearGradient3234" y1="-16.999678" y2="-20.594276"/>
    <linearGradient id="linearGradient5595" inkscape:collect="always">
      <stop id="stop5597" offset="0" style="stop-color:black;stop-opacity:1;"/>
      <stop id="stop5599" offset="1" style="stop-color:black;stop-opacity:0;"/>
    </linearGradient>
    <linearGradient gradientTransform="translate(2.15e-4,0.9999913)" gradientUnits="userSpaceOnUse" id="linearGradient5601" inkscape:collect="always" x1="23.643883" x2="23.643883" xlink:href="#linearGradient5595" y1="14.324039" y2="12.600467"/>
    <linearGradient id="linearGradient3184" inkscape:collect="always">
      <stop id="stop3186" offset="0" style="stop-color:white;stop-opacity:1;"/>
      <stop id="stop3188" offset="1" style="stop-color:white;stop-opacity:0;"/>
    </linearGradient>
    <linearGradient gradientTransform="translate(2.15e-4,-8.7e-6)" gradientUnits="userSpaceOnUse" id="linearGradient5578" inkscape:collect="always" x1="19.375" x2="19.375" xlink:href="#linearGradient3184" y1="17.749723" y2="42.944225"/>
    <linearGradient id="linearGradient3275">
      <stop id="stop3277" offset="0" style="stop-color:#e7e7e4;stop-opacity:1;"/>
      <stop id="stop5589" offset="0.32432431" style="stop-color:white;stop-opacity:1;"/>
      <stop id="stop5591" offset="0.83564645" style="stop-color:white;stop-opacity:1;"/>
      <stop id="stop3279" offset="1" style="stop-color:#d3d7cf;stop-opacity:1"/>
    </linearGradient>
    <linearGradient gradientTransform="matrix(0.928572,0,0,1.11,1.678775,-1.7050107)" gradientUnits="userSpaceOnUse" id="linearGradient5581" inkscape:collect="always" x1="18.250002" x2="28.615379" xlink:href="#linearGradient3275" y1="11.918621" y2="11.952705"/>
    <linearGradient id="linearGradient3162">
      <stop id="stop3164" offset="0" style="stop-color:#b49372;stop-opacity:1"/>
      <stop id="stop3166" offset="1" style="stop-color:#906e4c;stop-opacity:1"/>
    </linearGradient>
    <linearGradient gradientTransform="translate(2.15e-4,-8.7e-6)" gradientUnits="userSpaceOnUse" id="linearGradient5584" inkscape:collect="always" x1="22.625" x2="22.625" xlink:href="#linearGradient3162" y1="20.624619" y2="38.75"/>
    <linearGradient id="linearGradient3267" inkscape:collect="always">
      <stop id="stop3269" offset="0" style="stop-color:black;stop-opacity:1;"/>
      <stop id="stop3271" offset="1" style="stop-color:black;stop-opacity:0;"/>
    </linearGradient>
    <linearGradient gradientTransform="translate(29.000215,0.9999913)" gradientUnits="userSpaceOnUse" id="linearGradient5587" inkscape:collect="always" x1="-6.4523492" x2="-6.4965434" xlink:href="#linearGradient3267" y1="17.329243" y2="13.086602"/>
    <linearGradient gradientTransform="translate(-83,49)" gradientUnits="userSpaceOnUse" id="linearGradient3410" inkscape:collect="always" x1="5.3916893" x2="5.3916893" xlink:href="#linearGradient3146" y1="-38.885746" y2="8.9339542"/>
    <linearGradient id="linearGradient6506" inkscape:collect="always">
      <stop id="stop6508" offset="0" style="stop-color:white;stop-opacity:1;"/>
      <stop id="stop6510" offset="1" style="stop-color:white;stop-opacity:0;"/>
    </linearGradient>
    <linearGradient gradientUnits="userSpaceOnUse" id="linearGradient6512" inkscape:collect="always" x1="-71.724426" x2="-71.637245" xlink:href="#linearGradient6506" y1="8.4029417" y2="6.193233"/>
    <linearGradient id="linearGradient3412">
      <stop id="stop3414" offset="0" style="stop-color:#c22f2f;stop-opacity:1"/>
      <stop id="stop3416" offset="1" style="stop-color:#da3f3f;stop-opacity:1"/>
    </linearGradient>
    <linearGradient gradientTransform="matrix(-1,0,0,1,-16,-1)" gradientUnits="userSpaceOnUse" id="linearGradient3408" inkscape:collect="always" x1="56.500004" x2="56.500004" xlink:href="#linearGradient3412" y1="13.926061" y2="35.466221"/>
    <linearGradient id="linearGradient3146" inkscape:collect="always">
      <stop id="stop3148" offset="0" style="stop-color:white;stop-opacity:1;"/>
      <stop id="stop3150" offset="1" style="stop-color:white;stop-opacity:0;"/>
    </linearGradient>
    <linearGradient gradientTransform="translate(-83,49)" gradientUnits="userSpaceOnUse" id="linearGradient3382" inkscape:collect="always" x1="5.3916893" x2="5.3916893" xlink:href="#linearGradient3146" y1="-38.885746" y2="8.9339542"/>
    <linearGradient id="linearGradient3392">
      <stop id="stop3394" offset="0" style="stop-color:#555753;stop-opacity:1"/>
      <stop id="stop3396" offset="1" style="stop-color:#888a85;stop-opacity:1"/>
    </linearGradient>
    <linearGradient gradientTransform="matrix(-1,0,0,1,-16,-1)" gradientUnits="userSpaceOnUse" id="linearGradient3380" inkscape:collect="always" x1="56.500004" x2="56.500004" xlink:href="#linearGradient3392" y1="13.926061" y2="33.869427"/>
    <linearGradient id="linearGradient3280" inkscape:collect="always">
      <stop id="stop3282" offset="0" style="stop-color:black;stop-opacity:1;"/>
      <stop id="stop3284" offset="1" style="stop-color:black;stop-opacity:0;"/>
    </linearGradient>
    <radialGradient cx="24.3125" cy="39" fx="24.3125" fy="39" gradientTransform="matrix(1,0,0,0.232687,0,29.92521)" gradientUnits="userSpaceOnUse" id="radialGradient3286" inkscape:collect="always" r="22.5625" xlink:href="#linearGradient3280"/>
    <linearGradient id="linearGradient3304">
      <stop id="stop3306" offset="0" style="stop-color:black;stop-opacity:0;"/>
      <stop id="stop3312" offset="0.5" style="stop-color:black;stop-opacity:1;"/>
      <stop id="stop3308" offset="1" style="stop-color:black;stop-opacity:0;"/>
    </linearGradient>
    <linearGradient gradientUnits="userSpaceOnUse" id="linearGradient3310" inkscape:collect="always" x1="10.915961" x2="10.915961" xlink:href="#linearGradient3304" y1="35.498535" y2="41.500175"/>
    <radialGradient cx="2" cy="39.015625" fx="2" fy="39.015625" gradientTransform="matrix(2,0,0,2,38,-39.5313)" gradientUnits="userSpaceOnUse" id="radialGradient3300" inkscape:collect="always" r="1.5" xlink:href="#linearGradient3290"/>
    <linearGradient id="linearGradient3290" inkscape:collect="always">
      <stop id="stop3292" offset="0" style="stop-color:black;stop-opacity:1;"/>
      <stop id="stop3294" offset="1" style="stop-color:black;stop-opacity:0;"/>
    </linearGradient>
    <radialGradient cx="2" cy="39.015625" fx="2" fy="39.015625" gradientTransform="matrix(2,0,0,2,-9,-116.5313)" gradientUnits="userSpaceOnUse" id="radialGradient3296" inkscape:collect="always" r="1.5" xlink:href="#linearGradient3290"/>
  </defs>
  <sodipodi:namedview bordercolor="#666666" borderopacity="1.0" id="base" inkscape:current-layer="layer1" inkscape:cx="20.450495" inkscape:cy="20.859271" inkscape:document-units="px" inkscape:grid-bbox="true" inkscape:pageopacity="0.0" inkscape:pageshadow="2" inkscape:window-height="690" inkscape:window-width="641" inkscape:window-x="293" inkscape:window-y="264" inkscape:zoom="7" pagecolor="#ffffff" showgrid="true"/>
  <g id="layer1" inkscape:groupmode="layer" inkscape:label="Layer 1">
    <g id="g3314" style="opacity:0.3" transform="matrix(1.025079,0,0,1.567924,-0.589158,-22.968639)">
      <rect height="6" id="rect3288" style="opacity:1;fill:url(#radialGradient3296);fill-opacity:1;stroke:none;stroke-width:1;stroke-linecap:round;stroke-linejoin:round;stroke-miterlimit:4;stroke-dasharray:none;stroke-dashoffset:1.4;stroke-opacity:1" transform="scale(-1,-1)" width="3" x="-5" y="-41.5"/>
      <rect height="6" id="rect3298" style="opacity:1;fill:url(#radialGradient3300);fill-opacity:1;stroke:none;stroke-width:1;stroke-linecap:round;stroke-linejoin:round;stroke-miterlimit:4;stroke-dasharray:none;stroke-dashoffset:1.4;stroke-opacity:1" width="3" x="42" y="35.5"/>
      <rect height="6" id="rect3302" style="opacity:1;fill:url(#linearGradient3310);fill-opacity:1;stroke:none;stroke-width:1;stroke-linecap:round;stroke-linejoin:round;stroke-miterlimit:4;stroke-dasharray:none;stroke-dashoffset:1.4;stroke-opacity:1" width="37" x="5" y="35.5"/>
    </g>
    <path d="M 46.875,39 A 22.5625,5.25 0 1 1 1.75,39 A 22.5625,5.25 0 1 1 46.875,39 z" id="path3270" sodipodi:cx="24.3125" sodipodi:cy="39" sodipodi:rx="22.5625" sodipodi:ry="5.25" sodipodi:type="arc" style="opacity:0.18857141;fill:url(#radialGradient3286);fill-opacity:1;stroke:none;stroke-width:1.03653526;stroke-linecap:round;stroke-linejoin:round;stroke-miterlimit:4;stroke-dasharray:none;stroke-dashoffset:1.4;stroke-opacity:1" transform="matrix(0.46236,0,0,1.404762,12.259135,-15.410719)"/>
    <g id="g3370" transform="matrix(-1,0,0,1,-35.999785,-8.7e-6)">
      <path d="M -78.500004,8 L -78.500004,38.001826 C -78.500004,38.831811 -77.839354,39.499993 -77.018725,39.499993 L -67.98128,39.499993 C -67.160651,39.499993 -66.5,38.831811 -66.5,38.001826 L -66.5,8 L -65.5,5.5 L -65.5,10.5 L -65.5,7.5 L -76.5,7.5 L -76.5,5.5 L -78.500004,8 z" id="path3372" sodipodi:nodetypes="cccccccccccc" style="fill:url(#linearGradient3380);fill-opacity:1;stroke:#2e3436;stroke-width:1.00000012;stroke-linecap:square;stroke-linejoin:round;stroke-miterlimit:7.0999999;stroke-dashoffset:1.4;stroke-opacity:1"/>
      <path d="M -67.499993,8.5062626 L -67.499993,37.874998 C -67.499993,38.221248 -67.778743,38.499998 -68.124993,38.499998 L -76.874999,38.499998 C -77.221249,38.499998 -77.499999,38.221248 -77.499999,37.874998 L -77.499999,8.5062626 L -67.499993,8.5062626 z" id="path3378" sodipodi:nodetypes="ccccccc" style="opacity:0.7;fill:none;fill-opacity:1;stroke:url(#linearGradient3382);stroke-width:1;stroke-linecap:round;stroke-linejoin:miter;stroke-miterlimit:7.0999999;stroke-dashoffset:1.4;stroke-opacity:1"/>
    </g>
    <g id="g3398" transform="translate(83.000215,-8.7e-6)">
      <path d="M -78.500004,8 L -78.500004,38.001826 C -78.500004,38.831811 -77.839354,39.499993 -77.018725,39.499993 L -67.98128,39.499993 C -67.160651,39.499993 -66.5,38.831811 -66.5,38.001826 L -66.5,8 L -65.5,5.5 L -65.5,10.5 L -65.5,7.5 L -76.5,7.5 L -76.5,5.5 L -78.500004,8 z" id="path3400" sodipodi:nodetypes="cccccccccccc" style="fill:url(#linearGradient3408);fill-opacity:1;stroke:#a40000;stroke-width:1.00000012;stroke-linecap:square;stroke-linejoin:round;stroke-miterlimit:7.0999999;stroke-dashoffset:1.4;stroke-opacity:1"/>
      <path d="M -76.421875,6.03125 L -77.8125,7.6875 C -77.671652,7.8804108 -77.454795,7.9999998 -77.15625,8 L -67.8125,8 C -67.470114,8 -67.130791,7.8383582 -66.875,7.59375 L -66.3125,6.3125 C -66.3125,4.3125 -75.52489,4.8535534 -76.421875,6.03125 z" id="path3402" sodipodi:nodetypes="ccccccc" style="fill:#babdb6;fill-rule:evenodd;stroke:none;stroke-width:0.80000001;stroke-linecap:butt;stroke-linejoin:round;stroke-miterlimit:4;stroke-dasharray:none;stroke-opacity:1"/>
      <path d="M -76.75,7.15625 L -77.5,8 C -77.5,8 -77.5,8.5 -77,8.5 L -68.09375,8.5 C -67.915074,8.5 -67.5,8.5 -67.5,8 L -67.1875,7.09375 C -68.027459,5.375 -75.615309,5.9272366 -76.75,7.15625 z" id="path3404" sodipodi:nodetypes="ccccccc" style="fill:#d9d9d5;fill-opacity:1;fill-rule:evenodd;stroke:url(#linearGradient6512);stroke-width:1;stroke-linecap:butt;stroke-linejoin:miter;stroke-miterlimit:4;stroke-opacity:1"/>
      <path d="M -67.499993,8.5062626 L -67.499993,37.874998 C -67.499993,38.221248 -67.778743,38.499998 -68.124993,38.499998 L -76.874999,38.499998 C -77.221249,38.499998 -77.499999,38.221248 -77.499999,37.874998 L -77.499999,8.5062626 L -67.499993,8.5062626 z" id="path3406" sodipodi:nodetypes="ccccccc" style="opacity:0.7;fill:none;fill-opacity:1;stroke:url(#linearGradient3410);stroke-width:1;stroke-linecap:round;stroke-linejoin:miter;stroke-miterlimit:7.0999999;stroke-dashoffset:1.4;stroke-opacity:1"/>
    </g>
    <path d="M 18.843965,4.4062413 L 17.156465,14.812491 C 17.330698,15.104482 17.634116,15.312491 18.000215,15.312491 L 29.000215,15.312491 C 29.366314,15.312491 29.669732,15.104482 29.843965,14.812491 L 28.156465,4.4062413 C 25.025018,5.7912932 21.898096,5.9787166 18.843965,4.4062413 z" id="path3265" sodipodi:nodetypes="ccccccc" style="fill:url(#linearGradient5587);fill-opacity:1;fill-rule:evenodd;stroke:none;stroke-width:0.79999977;stroke-linecap:butt;stroke-linejoin:round;stroke-miterlimit:4;stroke-dasharray:none;stroke-opacity:1"/>
    <path d="M 30.500219,15.519486 L 29.500219,39.001818 C 29.500219,39.831802 28.839569,40.499984 28.01894,40.499984 L 18.981495,40.499984 C 18.160866,40.499984 17.500216,39.831802 17.500216,39.001818 L 16.500216,15.519486 L 18.500215,4.4999913 L 18.569535,8.4557971 L 28.519283,8.4999913 L 28.500215,4.4999913 L 30.500219,15.519486 z" id="path3133" sodipodi:nodetypes="ccccccccccc" style="fill:url(#linearGradient5584);fill-opacity:1;stroke:#745536;stroke-width:1.00000012;stroke-linecap:square;stroke-linejoin:round;stroke-miterlimit:7.0999999;stroke-dashoffset:1.4;stroke-opacity:1"/>
    <path d="M 18.843965,5.5624913 L 17.156465,14.812491 C 17.330698,15.104482 17.634116,15.312491 18.000215,15.312491 L 29.000215,15.312491 C 29.366314,15.312491 29.669732,15.104482 29.843965,14.812491 L 28.156465,5.5624913 C 25.052152,5.8350593 21.952305,4.9123811 18.843965,5.5624913 z" id="path3147" sodipodi:nodetypes="ccccccc" style="fill:url(#linearGradient5581);fill-opacity:1;fill-rule:evenodd;stroke:none;stroke-width:0.79999977;stroke-linecap:butt;stroke-linejoin:round;stroke-miterlimit:4;stroke-dasharray:none;stroke-opacity:1"/>
    <path d="M 17.500215,15.499991 L 18.468965,38.968742 C 18.469133,38.979157 18.469133,38.989575 18.468965,38.999992 C 18.468965,39.325655 18.675639,39.531241 18.968965,39.531241 L 28.031465,39.531241 C 28.324793,39.531241 28.531465,39.325654 28.531465,38.999992 C 28.531297,38.989575 28.531297,38.979157 28.531465,38.968742 L 29.500215,15.499991 L 17.500215,15.499991 z" id="path3143" sodipodi:nodetypes="ccsccsccc" style="opacity:0.5;fill:none;fill-opacity:1;stroke:url(#linearGradient5578);stroke-width:1;stroke-linecap:square;stroke-linejoin:round;stroke-miterlimit:7.0999999;stroke-dasharray:none;stroke-dashoffset:1.4;stroke-opacity:1"/>
    <path d="M 18.718965,6.3212034 L 18.875215,5.1962034 C 22.042402,3.8586496 24.85868,3.9019552 28.062715,5.0868284 L 28.312715,6.3524534 C 25.135298,4.8843178 21.883556,5.0464353 18.718965,6.3212034 z" id="path3156" sodipodi:nodetypes="ccccc" style="fill:#babdb6;fill-opacity:1;fill-rule:evenodd;stroke:none;stroke-width:1;stroke-linecap:butt;stroke-linejoin:round;stroke-miterlimit:4;stroke-dasharray:none;stroke-opacity:1"/>
    <path d="M 17.854661,15.235642 L 29.433535,15.32403 L 28.726428,12.230438 L 18.119826,11.876885 L 17.854661,15.235642 z" id="path5593" style="opacity:0.26285712;fill:url(#linearGradient5601);fill-opacity:1;fill-rule:evenodd;stroke:none;stroke-width:1px;stroke-linecap:butt;stroke-linejoin:miter;stroke-opacity:1"/>
    <path d="M 27.858929,6.7308289 C 25.238891,5.3955877 21.880147,5.1240895 19.130147,6.7167071 L 17.58859,15.228652 C 17.70506,15.3829 17.857759,15.501397 18.045248,15.501397 L 28.933064,15.501397 C 29.120554,15.501397 29.273252,15.3829 29.389722,15.228652 L 27.858929,6.7308289 z" id="path3302" sodipodi:nodetypes="ccccccc" style="fill:none;fill-opacity:1;fill-rule:evenodd;stroke:#ffffff;stroke-width:1.00000024;stroke-linecap:butt;stroke-linejoin:miter;stroke-miterlimit:4;stroke-dasharray:none;stroke-opacity:1"/>
    <g id="g3440" transform="translate(49.000215,0.9999913)">
      <path d="M -29.5,16.5 L -29.25,22.5 L -21.75,22.5 L -21.5,16.5 L -29.5,16.5 z" id="path3292" style="fill:#cfcfc9;fill-opacity:1;stroke:#e2e2e2;stroke-width:0.99999988;stroke-linecap:round;stroke-linejoin:round;stroke-miterlimit:4;stroke-dashoffset:1.4;stroke-opacity:1"/>
      <g id="g3436">
        <path d="M 13.567611,32.487846 A 3.0935922,3.0493979 0 1 1 7.3804269,32.487846 A 3.0935922,3.0493979 0 1 1 13.567611,32.487846 z" id="path3294" sodipodi:cx="10.474019" sodipodi:cy="32.487846" sodipodi:rx="3.0935922" sodipodi:ry="3.0493979" sodipodi:type="arc" style="opacity:1;fill:#888a85;fill-opacity:1;stroke:#745536;stroke-width:1.12152207;stroke-linecap:round;stroke-linejoin:round;stroke-miterlimit:4;stroke-dasharray:none;stroke-dashoffset:1.4;stroke-opacity:1" transform="matrix(0.969746,0,0,0.819835,-35.65714,6.36533)"/>
        <path d="M -25.5,32.015615 C -26.699954,32.015615 -27.674466,32.467603 -27.90625,33.416662 C -27.674466,34.36572 -26.668704,35.083333 -25.46875,35.083333 C -24.268796,35.083333 -23.294284,34.365721 -23.0625,33.416662 C -23.294285,32.467603 -24.300047,32.015615 -25.5,32.015615 z" id="path3296" sodipodi:nodetypes="ccscc" style="opacity:1;fill:#d3d7cf;fill-opacity:1;stroke:none;stroke-width:1;stroke-linecap:round;stroke-linejoin:round;stroke-miterlimit:4;stroke-dasharray:none;stroke-dashoffset:1.4;stroke-opacity:1"/>
      </g>
    </g>
    <g id="g3418" transform="translate(49.000215,-8.7e-6)">
      <rect height="7.0000043" id="rect3354" rx="0" ry="0" style="opacity:1;fill:#eeeeec;fill-opacity:1;stroke:#ffffff;stroke-width:0.99999988;stroke-linecap:round;stroke-linejoin:round;stroke-miterlimit:4;stroke-dasharray:none;stroke-dashoffset:1.4;stroke-opacity:1" width="5.9999971" x="-41.499996" y="11.499996"/>
      <g id="g3362" transform="translate(-49,0)">
        <path d="M 13.567611,32.487846 A 3.0935922,3.0493979 0 1 1 7.3804269,32.487846 A 3.0935922,3.0493979 0 1 1 13.567611,32.487846 z" id="path3364" sodipodi:cx="10.474019" sodipodi:cy="32.487846" sodipodi:rx="3.0935922" sodipodi:ry="3.0493979" sodipodi:type="arc" style="opacity:1;fill:#babdb6;fill-opacity:1;stroke:#a40000;stroke-width:1.02380633;stroke-linecap:round;stroke-linejoin:round;stroke-miterlimit:4;stroke-dasharray:none;stroke-dashoffset:1.4;stroke-opacity:1" transform="matrix(0.969746,0,0,0.983799,0.342857,-0.4615)"/>
        <path d="M 10.5,30 C 9.300046,30 8.325534,30.861133 8.09375,32 C 8.325534,33.138867 9.331296,34 10.53125,34 C 11.731204,34 12.705716,33.138868 12.9375,32 C 12.705715,30.861133 11.699953,30 10.5,30 z" id="path3366" style="opacity:1;fill:url(#linearGradient3499);fill-opacity:1;stroke:none;stroke-width:1;stroke-linecap:round;stroke-linejoin:round;stroke-miterlimit:4;stroke-dasharray:none;stroke-dashoffset:1.4;stroke-opacity:1"/>
      </g>
    </g>
    <path d="M 13.567611,32.487846 A 3.0935922,3.0493979 0 1 1 7.3804269,32.487846 A 3.0935922,3.0493979 0 1 1 13.567611,32.487846 z" id="path3386" sodipodi:cx="10.474019" sodipodi:cy="32.487846" sodipodi:rx="3.0935922" sodipodi:ry="3.0493979" sodipodi:type="arc" style="opacity:1;fill:#babdb6;fill-opacity:1;stroke:#2e3436;stroke-width:1.02380633;stroke-linecap:round;stroke-linejoin:round;stroke-miterlimit:4;stroke-dasharray:none;stroke-dashoffset:1.4;stroke-opacity:1" transform="matrix(0.969746,0,0,0.983799,26.343075,-0.4615087)"/>
    <g id="g3424" transform="translate(49.000215,-8.7e-6)">
      <rect height="7.0000043" id="rect3384" rx="0" ry="0" style="opacity:1;fill:#eeeeec;fill-opacity:1;stroke:#ffffff;stroke-width:0.99999988;stroke-linecap:round;stroke-linejoin:round;stroke-miterlimit:4;stroke-dasharray:none;stroke-dashoffset:1.4;stroke-opacity:1" width="5.9999971" x="-15.499996" y="11.499996"/>
      <path d="M -12.5,30 C -13.699954,30 -14.674466,30.861133 -14.90625,32 C -14.674466,33.138867 -13.668704,34 -12.46875,34 C -11.268796,34 -10.294284,33.138868 -10.0625,32 C -10.294285,30.861133 -11.300047,30 -12.5,30 z" id="path3388" style="opacity:1;fill:url(#linearGradient3497);fill-opacity:1;stroke:none;stroke-width:1;stroke-linecap:round;stroke-linejoin:round;stroke-miterlimit:4;stroke-dasharray:none;stroke-dashoffset:1.4;stroke-opacity:1"/>
    </g>
    <path d="M 40.42209,6.0529779 L 41.812715,7.7092279 C 41.671867,7.9021387 41.45501,8.0217273 41.156465,8.0217283 L 31.812715,8.0217283 C 31.470329,8.0217283 31.131006,7.8600861 30.875215,7.6154779 L 30.312715,6.3342279 C 30.312715,4.3342279 39.525105,4.8752813 40.42209,6.0529779 z" id="path3572" sodipodi:nodetypes="ccccccc" style="fill:#babdb6;fill-rule:evenodd;stroke:none;stroke-width:0.80000001;stroke-linecap:butt;stroke-linejoin:round;stroke-miterlimit:4;stroke-dasharray:none;stroke-opacity:1"/>
    <path d="M 40.750215,7.1779779 L 41.500215,8.0217283 C 41.500215,8.0217283 41.500215,8.5217283 41.000215,8.5217283 L 32.093965,8.5217283 C 31.915289,8.5217283 31.500215,8.5217283 31.500215,8.0217283 L 31.187715,7.1154779 C 32.027674,5.3967279 39.615524,5.9489645 40.750215,7.1779779 z" id="path3574" sodipodi:nodetypes="ccccccc" style="fill:#d9d9d5;fill-opacity:1;fill-rule:evenodd;stroke:url(#linearGradient6496);stroke-width:1;stroke-linecap:butt;stroke-linejoin:miter;stroke-miterlimit:4;stroke-opacity:1"/>
    <g id="g3588" style="opacity:1" transform="matrix(1,0,0,0.960159,2.15e-4,1.2577103)">
      <path d="M 22.6875,14.3125 L 23.1875,6.4687499 L 23.375,14.3125 L 22.6875,14.3125 z" id="path3580" sodipodi:nodetypes="cccc" style="fill:#babdb6;fill-opacity:1;fill-rule:evenodd;stroke:none;stroke-width:1px;stroke-linecap:butt;stroke-linejoin:miter;stroke-opacity:1"/>
      <path d="M 25.6875,14.3125 L 25.6875,7.7499999 L 26.375,14.3125 L 25.6875,14.3125 z" id="path3582" sodipodi:nodetypes="cccc" style="fill:#babdb6;fill-opacity:1;fill-rule:evenodd;stroke:none;stroke-width:1px;stroke-linecap:butt;stroke-linejoin:miter;stroke-opacity:1"/>
      <path d="M 19.6875,14.3125 L 20.46875,9.9375 L 20.375,14.3125 L 19.6875,14.3125 z" id="path3586" sodipodi:nodetypes="cccc" style="fill:#babdb6;fill-opacity:1;fill-rule:evenodd;stroke:none;stroke-width:1px;stroke-linecap:butt;stroke-linejoin:miter;stroke-opacity:1"/>
    </g>
    <g id="g6518" style="opacity:0.22285713" transform="translate(2.15e-4,0.9999913)">
      <path d="M 21.416659,18.5 L 25.583324,18.5" id="path6514" style="fill:none;fill-rule:evenodd;stroke:#000000;stroke-width:0.99999982px;stroke-linecap:square;stroke-linejoin:miter;stroke-opacity:1"/>
      <path d="M 21.333335,20.5 L 25.5,20.5" id="path6516" style="fill:none;fill-rule:evenodd;stroke:#000000;stroke-width:0.99999982px;stroke-linecap:square;stroke-linejoin:miter;stroke-opacity:1"/>
    </g>
    <g id="g6522" style="opacity:0.1" transform="matrix(0.952384,0,0,1,14.158875,-5.0000087)">
      <path d="M 21.416659,18.5 L 25.583324,18.5" id="path6524" style="fill:none;fill-rule:evenodd;stroke:#000000;stroke-width:1.02469325px;stroke-linecap:square;stroke-linejoin:miter;stroke-opacity:1"/>
      <path d="M 21.333335,20.5 L 25.5,20.5" id="path6526" style="fill:none;fill-rule:evenodd;stroke:#000000;stroke-width:1.02469325px;stroke-linecap:square;stroke-linejoin:miter;stroke-opacity:1"/>
    </g>
    <g id="g6528" style="opacity:0.1" transform="matrix(0.952384,0,0,1,-11.841115,-5.0000087)">
      <path d="M 21.416659,18.5 L 25.583324,18.5" id="path6530" style="fill:none;fill-rule:evenodd;stroke:#000000;stroke-width:1.02469337px;stroke-linecap:square;stroke-linejoin:miter;stroke-opacity:1"/>
      <path d="M 21.333335,20.5 L 25.5,20.5" id="path6532" style="fill:none;fill-rule:evenodd;stroke:#000000;stroke-width:1.02469337px;stroke-linecap:square;stroke-linejoin:miter;stroke-opacity:1"/>
    </g>
  </g>
</svg>
