<?xml version="1.0" encoding="iso-8859-1"?>
<!-- Generator: Adobe Illustrator 19.0.0, SVG Export Plug-In . SVG Version: 6.00 Build 0)  -->
<svg version="1.1" id="Layer_1" xmlns="http://www.w3.org/2000/svg" xmlns:xlink="http://www.w3.org/1999/xlink" x="0px" y="0px"
	 viewBox="0 0 416.227 416.227" style="enable-background:new 0 0 416.227 416.227;" xml:space="preserve">
<g>
	<g>
		<g>
			<path d="M410.073,56.177c-33.364-7.905-67.668-11.913-101.957-11.913c-33.62,0-67.251,3.863-100.001,11.464
				c-32.749-7.602-66.379-11.464-99.999-11.464c-34.289,0-68.593,4.008-101.959,11.913C2.548,57.033,0,60.254,0,63.963v300
				c0,2.446,1.119,4.758,3.038,6.275c1.427,1.128,3.179,1.725,4.962,1.725c0.615,0,1.233-0.071,1.844-0.216
				c32.157-7.618,65.219-11.482,98.268-11.482c32.699,0,65.411,3.788,97.248,11.247c0.608,0.213,1.242,0.326,1.883,0.387
				c0.067,0.008,0.134,0.01,0.202,0.017c0.186,0.013,0.369,0.046,0.555,0.046c0.032,0,0.065-0.005,0.097-0.006
				c0.944,0.015,1.88-0.135,2.767-0.444c31.837-7.459,64.547-11.248,97.247-11.248c33.05,0,66.112,3.863,98.272,11.482
				c2.38,0.564,4.887,0.009,6.806-1.509s3.038-3.829,3.038-6.275v-300C416.228,60.254,413.68,57.033,410.073,56.177z M200,353.917
				c-30.179-6.406-61.039-9.652-91.888-9.652c-30.926-0.001-61.863,3.26-92.112,9.699V70.336
				c60.354-13.351,123.645-13.367,184-0.049V353.917z M400.228,353.964c-30.251-6.439-61.189-9.699-92.116-9.699
				c-30.848,0-61.707,3.246-91.884,9.652V70.288c60.359-13.318,123.65-13.304,184,0.049V353.964z"/>
			<path d="M295.795,173.435c-17.061,0.477-34.274,1.959-51.162,4.408c-3.934,0.57-6.852,3.942-6.852,7.917v74
				c0,2.322,1.009,4.529,2.765,6.049c1.464,1.267,3.325,1.951,5.235,1.951c0.382,0,0.766-0.027,1.149-0.083
				c16.276-2.36,32.867-3.789,49.313-4.248c4.329-0.121,7.776-3.666,7.776-7.997v-74c0-2.16-0.874-4.229-2.423-5.735
				C300.047,174.19,297.982,173.382,295.795,173.435z M288.019,247.721c-11.425,0.522-22.884,1.49-34.237,2.894v-57.873
				c11.343-1.456,22.808-2.461,34.237-3.003V247.721z"/>
			<path d="M276.311,88.409c-4.185,0.302-7.425,3.784-7.425,7.979v46c0,2.222,0.924,4.343,2.55,5.856
				c1.627,1.513,3.796,2.278,6.025,2.123c10.157-0.733,20.47-1.104,30.652-1.104c20.738,0,41.654,1.533,62.165,4.557
				c0.39,0.058,0.779,0.086,1.167,0.086c1.906,0,3.766-0.682,5.229-1.944c1.76-1.52,2.771-3.73,2.771-6.056v-46
				c0-3.968-2.908-7.336-6.834-7.914c-21.286-3.138-42.988-4.729-64.502-4.729C297.545,87.265,286.847,87.65,276.311,88.409z
				 M363.446,106.87v29.87c-18.326-2.308-36.895-3.476-55.332-3.476c-7.708,0-15.49,0.205-23.228,0.611v-29.978
				c7.732-0.421,15.515-0.634,23.224-0.634C326.548,103.263,345.13,104.476,363.446,106.87z"/>
			<path d="M369.556,259.552c-14.869-2.085-30.017-3.426-45.021-3.982c-2.185-0.072-4.283,0.725-5.848,2.233
				s-2.449,3.588-2.449,5.761v54c0,4.303,3.403,7.835,7.703,7.994c14.461,0.537,29.06,1.829,43.392,3.84
				c0.371,0.052,0.742,0.077,1.111,0.077c1.917,0,3.784-0.689,5.249-1.963c1.748-1.52,2.751-3.722,2.751-6.037v-54
				C376.445,263.486,373.506,260.107,369.556,259.552z M360.445,312.372c-9.361-1.113-18.798-1.933-28.206-2.448v-37.975
				c9.413,0.535,18.853,1.385,28.206,2.54V312.372z"/>
			<path d="M332.742,177.951c-4.43-0.253-8.188,3.13-8.434,7.541c-0.246,4.412,3.13,8.188,7.541,8.434
				c14.456,0.808,29.036,2.371,43.334,4.647c0.426,0.068,0.85,0.101,1.268,0.101c3.863,0,7.264-2.806,7.891-6.743
				c0.695-4.363-2.279-8.464-6.643-9.158C362.865,180.411,347.739,178.788,332.742,177.951z"/>
			<path d="M377.699,210.773c-14.834-2.362-29.96-3.984-44.957-4.821c-4.43-0.254-8.188,3.13-8.434,7.541
				c-0.246,4.412,3.13,8.188,7.541,8.434c14.456,0.808,29.036,2.371,43.334,4.647c0.426,0.068,0.85,0.101,1.268,0.101
				c3.863,0,7.264-2.806,7.891-6.743C385.037,215.567,382.062,211.468,377.699,210.773z"/>
			<path d="M287.588,283.741c-14.999,0.697-30.136,2.179-44.99,4.402c-4.37,0.654-7.382,4.728-6.727,9.097
				c0.595,3.969,4.008,6.816,7.902,6.816c0.394,0,0.793-0.029,1.194-0.089c14.317-2.145,28.907-3.572,43.363-4.244
				c4.414-0.205,7.825-3.949,7.62-8.362C295.746,286.947,291.985,283.55,287.588,283.741z"/>
			<path d="M287.588,311.741c-14.999,0.697-30.136,2.179-44.99,4.402c-4.37,0.654-7.382,4.728-6.727,9.097
				c0.595,3.969,4.008,6.816,7.902,6.816c0.394,0,0.793-0.029,1.194-0.089c14.317-2.145,28.907-3.572,43.363-4.244
				c4.414-0.205,7.825-3.949,7.62-8.362C295.746,314.948,291.985,311.53,287.588,311.741z"/>
			<path d="M42.534,185.512c1.465,1.273,3.332,1.963,5.249,1.963c0.369,0,0.741-0.025,1.111-0.077
				c14.331-2.011,28.93-3.303,43.392-3.84c4.3-0.159,7.703-3.691,7.703-7.994v-73c0-2.173-0.884-4.253-2.449-5.761
				s-3.665-2.312-5.848-2.233c-15.005,0.557-30.152,1.897-45.021,3.982c-3.95,0.555-6.889,3.934-6.889,7.923v73
				C39.783,181.791,40.786,183.994,42.534,185.512z M55.783,113.489c9.353-1.155,18.792-2.005,28.206-2.54v56.975
				c-9.409,0.516-18.845,1.335-28.206,2.448V113.489z"/>
			<path d="M175.665,190.455c-14.516-2.243-29.302-3.777-43.95-4.559c-2.191-0.126-4.337,0.672-5.93,2.183
				c-1.594,1.511-2.496,3.61-2.496,5.806v48c0,4.252,3.327,7.762,7.573,7.988c14.137,0.756,28.388,2.234,42.36,4.395
				c0.407,0.063,0.816,0.094,1.222,0.094c1.896,0,3.747-0.675,5.207-1.927c1.772-1.52,2.793-3.738,2.793-6.073v-48
				C182.444,194.414,179.566,191.057,175.665,190.455z M166.444,237.13c-9.006-1.197-18.09-2.121-27.155-2.763v-31.959
				c9.063,0.666,18.15,1.626,27.155,2.868V237.13z"/>
			<path d="M46.793,275.55v42c0,2.293,0.984,4.476,2.702,5.994c1.471,1.3,3.358,2.006,5.298,2.006c0.327,0,0.655-0.02,0.983-0.061
				c17.301-2.141,34.913-3.226,52.346-3.226c4.922,0,9.913,0.087,14.831,0.258c2.171,0.072,4.275-0.733,5.836-2.24
				c1.561-1.508,2.442-3.585,2.442-5.755v-42c0-4.308-3.415-7.844-7.722-7.994c-5.104-0.178-10.281-0.268-15.388-0.268
				c-18.087,0-36.36,1.126-54.311,3.347C49.802,268.107,46.793,271.512,46.793,275.55z M62.793,282.681
				c15.032-1.605,30.247-2.417,45.328-2.417c2.359,0,4.735,0.02,7.11,0.06v25.998c-2.376-0.038-4.75-0.058-7.11-0.058
				c-15.079,0-30.286,0.782-45.328,2.329V282.681z"/>
			<path d="M129.874,117.82c14.466,0.739,29.05,2.235,43.347,4.446c0.415,0.063,0.826,0.095,1.232,0.095
				c3.878,0,7.285-2.826,7.896-6.778c0.675-4.366-2.317-8.453-6.684-9.129c-14.834-2.294-29.966-3.846-44.976-4.612
				c-4.397-0.264-8.172,3.168-8.398,7.581C122.067,113.835,125.461,117.594,129.874,117.82z"/>
			<path d="M129.874,145.82c14.466,0.739,29.05,2.235,43.347,4.446c0.415,0.064,0.826,0.095,1.232,0.095
				c3.878,0,7.285-2.826,7.896-6.778c0.675-4.366-2.317-8.453-6.684-9.129c-14.834-2.294-29.966-3.846-44.976-4.612
				c-4.397-0.262-8.172,3.168-8.398,7.581C122.067,141.835,125.461,145.594,129.874,145.82z"/>
			<path d="M92.718,204.533c-15.005,0.523-30.155,1.827-45.027,3.879c-4.377,0.604-7.436,4.641-6.832,9.018
				c0.552,4.007,3.981,6.908,7.915,6.908c0.364,0,0.733-0.024,1.103-0.076c14.334-1.977,28.936-3.234,43.398-3.738
				c4.415-0.153,7.871-3.858,7.717-8.273C100.838,207.833,97.126,204.388,92.718,204.533z"/>
			<path d="M49.876,252.26c14.334-1.977,28.936-3.234,43.398-3.738c4.415-0.153,7.871-3.858,7.717-8.273
				c-0.153-4.415-3.865-7.868-8.273-7.717c-15.005,0.523-30.155,1.827-45.027,3.879c-4.377,0.604-7.436,4.641-6.832,9.018
				c0.552,4.007,3.981,6.908,7.915,6.908C49.137,252.338,49.506,252.312,49.876,252.26z"/>
			<path d="M143.442,288.631c-0.44,4.396,2.767,8.316,7.163,8.757c9.829,0.984,19.746,2.329,29.475,3.995
				c0.457,0.079,0.912,0.116,1.36,0.116c3.825,0,7.208-2.753,7.876-6.65c0.746-4.355-2.18-8.489-6.535-9.235
				c-10.094-1.729-20.383-3.124-30.581-4.146C147.804,281.026,143.883,284.234,143.442,288.631z"/>
			<path d="M182.781,313.613c-10.094-1.729-20.383-3.124-30.581-4.146c-4.395-0.444-8.316,2.767-8.757,7.163
				c-0.44,4.396,2.767,8.316,7.163,8.757c9.829,0.984,19.746,2.329,29.475,3.995c0.457,0.079,0.912,0.116,1.36,0.116
				c3.825,0,7.208-2.753,7.876-6.65C190.061,318.494,187.136,314.359,182.781,313.613z"/>
		</g>
	</g>
</g>
<g>
</g>
<g>
</g>
<g>
</g>
<g>
</g>
<g>
</g>
<g>
</g>
<g>
</g>
<g>
</g>
<g>
</g>
<g>
</g>
<g>
</g>
<g>
</g>
<g>
</g>
<g>
</g>
<g>
</g>
</svg>
