<?xml version="1.0" ?><svg width="512px" height="512px" viewBox="0 0 512 512" id="icon" style="enable-background:new 0 0 512 512;" version="1.1" xml:space="preserve" xmlns="http://www.w3.org/2000/svg" xmlns:xlink="http://www.w3.org/1999/xlink"><path d="M457.0821838,298.8963928c-9.1731873-6.0328979-21.5491028-3.4898987-27.5870056,5.6860046l-0.8374023,1.2723999  l-51.2802124-33.754303l5.1234436-7.7836914c3.4870605-5.2955017,4.7001648-11.6517029,3.4119873-17.8964996  c-1.285614-6.2449036-4.9126282-11.6024017-10.2079163-15.0870972c-5.2955017-3.4922028-11.6618042-4.708313-17.8965149-3.4121094  c-6.244873,1.2857971-11.6023865,4.9125977-15.0895691,10.2080994l-5.6213074,8.5400085  c-6.3374023-4.2467041-12.7420959-8.7042999-19.1793213-13.3433075  c69.0019226-81.5390015,43.2826233-138.7173004,41.7814026-141.8526917  c-0.7710876-1.6115952-2.3050842-2.7266006-4.0797729-2.9618988c-1.7565308-0.2380981-3.5414124,0.4345016-4.7108154,1.7925034  c-0.5559082,0.6448975-39.0259094,45-94.9243011,93.6963959c-55.8020935-48.5895996-94.504303-93.2425995-94.8970947-93.6963959  c-1.1694031-1.3580017-2.9542999-2.0357056-4.710907-1.7925034c-1.7745972,0.2352982-3.3085938,1.3503036-4.0796967,2.9618988  c-1.1661835,2.4371033-27.2225952,59.6621017,41.9450073,141.7621155  c-6.3509979,4.5833893-12.7987061,9.075592-19.3298035,13.4536896l-5.6345062-8.5597992  c-3.4870911-5.2955017-8.8445892-8.9223022-15.0895996-10.2080994c-6.2369995-1.2856903-12.5956879-0.072403-17.8963928,3.4096069  c-10.9684982,7.2200928-14.0185013,22.017395-6.7984009,32.9860992l5.1245117,7.7849121l-51.2768097,33.7520752  l-0.8368988-1.2713928c-6.0404053-9.1681824-18.4111023-11.7215881-27.5870018-5.6860046  c-4.4314003,2.9179077-7.4632874,7.398407-8.5393982,12.6190186c-1.0763016,5.2229919-0.0622025,10.539093,2.8532982,14.9679871  l46.0784988,70.0050964c3.8236008,5.8049011,10.1873169,8.9609985,16.6703186,8.9609985  c2.0144806,0,4.035881-0.3310852,6.0012817-0.9556885c10.6222,12.387207,25.7820053,19.0437012,41.2515945,19.0437012  c10.3115997,0,20.7342987-2.9284058,29.9774017-9.0129089c19.3222961-12.7149048,28.2971039-35.9217834,23.0791016-57.9924011  c1.6784973-0.6221008,3.315094-1.3800964,4.8442993-2.3868103c5.2953949-3.4870911,8.9223938-8.844574,10.2079926-15.0895996  c1.2883301-6.2447815,0.0752106-12.6009827-3.4095917-17.8963928l-3.0018005-4.5604858  c12.7536011-8.5328979,24.4440002-16.944397,35.1053009-25.2070923  c10.8858948,8.4473877,22.6329041,16.8917847,35.0384827,25.1957703l-3.0091858,4.5718079  c-3.4848022,5.2954102-4.6954041,11.6516113-3.4096069,17.8963928c1.288208,6.2450256,4.9125977,11.6025085,10.2080078,15.0895996  c1.5297852,1.0063171,3.1659851,1.7640076,4.8442993,2.3862c-5.2184143,22.0706177,3.7567139,45.2781067,23.0791016,57.9930115  c9.2456055,6.0894165,19.6658936,9.0129089,29.9773865,9.0129089c15.4673157,0,30.6307983-6.6602173,41.2520142-19.04422  c1.9649963,0.6251221,3.9858093,0.9562073,6.0009155,0.9562073c6.4830017,0,12.8466797-3.1560974,16.670166-8.9609985  l46.0812073-70.0050964C468.8034668,317.3099976,466.2528687,304.9341125,457.0821838,298.8963928z M159.3467865,104.2810974  c13.1154938,14.4912033,45.7899933,49.386795,88.5225983,86.7127991  c-14.1282043,12.0413971-29.2640991,24.2205048-45.0745087,35.9761047  C152.5601807,167.5968933,155.3505859,122.1230011,159.3467865,104.2810974z M117.0709991,393.3269958  c-4.2839966,2.8200073-10.0838165,1.6300049-12.9087143-2.6643982l-46.078598-70.0050964  c-2.8274002-4.2915955-1.6322021-10.0837097,2.6595001-12.9086914c4.302002-2.8249207,10.0890961-1.6245117,12.9088135,2.6593018  l3.7441864,5.6882935c0.0022964,0.0033875,0.0018997,0.0075073,0.0041962,0.0105896  c0.0032043,0.0053101,0.0083008,0.008606,0.0117035,0.0137939l42.3182983,64.2922974  C122.557785,384.707489,121.3627853,390.4971008,117.0709991,393.3269958z M89.1677856,314.7056885l51.2769012-33.7519836  l32.7523956,49.7573853l-51.2769012,33.7539063L89.1677856,314.7056885z M183.3844757,405.6770935  c-18.242691,12.0031128-42.1702881,8.7288208-56.5405884-7.0453796c5.7637939-6.5725098,6.7704926-16.401001,1.7389984-24.04422  l-0.837204-1.2721863l51.2781982-33.7523193l5.123703,7.7839966c3.4873047,5.2954102,8.8448944,8.9222107,15.0895996,10.2080078  c0.8251953,0.1705017,1.6506042,0.1712036,2.4768219,0.2543945  C206.5160065,375.9262085,199.2879944,395.2109985,183.3844757,405.6770935z M216.9655762,336.9165039  c-0.7166901,3.4717102-2.7266998,6.4465027-5.6577911,8.3789978c-2.9360962,1.9298096-6.4697876,2.5920105-9.9311066,1.8833923  c-3.4716797-0.7167053-6.4466858-2.7268982-8.3764954-5.6578064l-46.6161804-70.8190002l-0.0005188-0.0007935l-0.0005951-0.0007019  l-8.0368958-12.2095947c-4.0072021-6.0896912-2.3154144-14.3031921,3.771698-18.3076935  c2.1653137-1.428009,4.6564941-2.1654968,7.2098846-2.1654968c0.9029083,0,1.8161011,0.0932922,2.7215118,0.2795868  c3.4715881,0.716507,6.4465027,2.7265015,8.3764954,5.657608l8.5714111,13.0208893  c0.0010834,0.0013123,0.0006866,0.0030212,0.0016937,0.0042114c0.0007935,0.0014954,0.0020905,0.0021057,0.0030975,0.0032959  l40.1819916,61.0414124c0.0016022,0.0019836,0.0012207,0.0047913,0.0028992,0.0069885  c0.0023193,0.0036011,0.0054016,0.0054932,0.0077057,0.0090027l5.8878937,8.944397  C217.012085,329.9161072,217.6795807,333.4447937,216.9655762,336.9165039z M215.0897827,307.7257996l-34.3466034-52.1786957  c8.3670044-5.6080017,16.6042023-11.4036102,24.6707001-17.3279114c0.0209961-0.0179901,0.0475006-0.0226898,0.0682983-0.0408936  c0.0066986-0.0057983,0.0089111-0.0146027,0.0158234-0.0205994  c70.7881927-52.0052032,128.5206757-113.3256989,147.1238861-133.853302  C358.1661682,129.5912933,360.9598694,210.0559998,215.0897827,307.7257996z M264.6004944,284.6148987  c18.5301819-14.982605,33.7823792-29.4528046,46.3060913-43.276001c6.8318787,4.9369965,13.6355896,9.6725006,20.3644104,14.1820068  l-34.3704224,52.2154846C285.5050659,300.1086121,274.690094,292.3652039,264.6004944,284.6148987z M300.6890869,345.2927856  c-6.0870972-4.0044861-7.7789001-12.2179871-3.7719116-18.3075867l46.0782166-70.0018005  c0.0009766-0.0011902,0.0020752-0.0018005,0.0028992-0.0032959l0.0009766-0.0025024l8.572113-13.0225983  c1.9299927-2.9311066,4.9047852-4.9411011,8.3764954-5.657608c0.9081116-0.1862946,1.8186035-0.2795868,2.7242126-0.2795868  c2.5506897,0,5.0419006,0.7399902,7.2071838,2.1654968c2.9309082,1.9297943,4.940918,4.9046021,5.6575928,8.376297  c0.7138977,3.4716949,0.0466003,7.0003967-1.8858643,9.9313965l-8.0369263,12.2095947l-0.000885,0.0007019l-0.0001831,0.0007935  l-46.6162415,70.8190002c-1.9297791,2.9309082-4.9047546,4.9411011-8.3764954,5.6578064  C307.1408691,347.8901978,303.6175842,347.2200928,300.6890869,345.2927856z M328.6124878,405.6770935  c-15.9034729-10.4708862-23.1292114-29.7512817-18.3291016-47.8677063c0.8262024-0.0831909,1.6513977-0.0838928,2.4763794-0.2543945  c6.2447205-1.2857971,11.6022339-4.9125977,15.0895996-10.2080078l5.1237183-7.7843933l51.2790833,33.751709l-0.8381653,1.2731934  c-5.0314331,7.6430054-4.0249329,17.471405,1.7401733,24.0440063  C370.7858887,414.4059143,346.8603821,417.6802063,328.6124878,405.6770935z M338.799469,330.7106934l32.7516174-49.7580872  l51.2797852,33.7539978l-32.7530823,49.7573853L338.799469,330.7106934z M453.9157715,320.6575012l-46.0810852,70.0050964  c-2.8224182,4.2892151-8.6143188,5.4844055-12.9062195,2.6643982c-4.2944031-2.829895-5.4892883-8.6195068-2.6618958-12.9139099  l3.7453003-5.6895752c0.0016174-0.0025024,0.0041199-0.0042114,0.0057983-0.006897  c0.0009155-0.0015259,0.0013428-0.0035095,0.0021057-0.0050049l38.5751038-58.6028137c0,0,0.0011902-0.0010986,0.0015869-0.0018005  c0.0005188-0.0000916,0.0005188-0.0010071,0.0005188-0.0010071l3.7507019-5.697876  c1.7875977-2.718811,4.7650757-4.193512,7.7969971-4.193512c1.7591858,0,3.5363159,0.4967041,5.1116943,1.5342102  C455.5480652,310.5737915,456.7407837,316.3659058,453.9157715,320.6575012z"/></svg>