<?xml version='1.0' encoding='iso-8859-1'?>
<svg version="1.1" xmlns="http://www.w3.org/2000/svg" viewBox="0 0 470 470" xmlns:xlink="http://www.w3.org/1999/xlink" enable-background="new 0 0 470 470">
  <g>
    <g>
      <path d="m168.59,175.467c2.118-3.56 0.95-8.163-2.61-10.281-3.561-2.119-8.163-0.949-10.281,2.61-1.35,2.268-3.96,3.677-6.813,3.677-2.851,0-5.464-1.412-6.82-3.685-2.122-3.557-6.726-4.72-10.284-2.598-3.557,2.123-4.72,6.727-2.598,10.284 4.048,6.784 11.597,10.999 19.702,10.999 8.114,2.84217e-14 15.664-4.217 19.704-11.006z"/>
      <path d="M257.77,148.882C257.77,88.844,208.925,40,148.887,40C88.846,40,39.999,88.844,39.999,148.882    c0,60.04,48.847,108.886,108.888,108.886C208.925,257.769,257.77,208.922,257.77,148.882z M54.999,148.882    C54.999,97.115,97.117,55,148.887,55c51.767,0,93.883,42.115,93.883,93.882c0,51.769-42.116,93.886-93.883,93.886    C97.117,242.769,54.999,200.651,54.999,148.882z"/>
      <path d="m110.1,120.924c-6.341,0-11.5,5.158-11.5,11.499 0,6.342 5.159,11.501 11.5,11.501s11.5-5.159 11.5-11.501c0-6.341-5.159-11.499-11.5-11.499z"/>
      <path d="m187.671,143.924c6.341,0 11.5-5.159 11.5-11.501 0-6.341-5.159-11.499-11.5-11.499s-11.5,5.158-11.5,11.499c0,6.342 5.159,11.501 11.5,11.501z"/>
      <path d="m372.339,181.313c-0.397-0.183-0.811-0.327-1.235-0.438-15.632-5.589-32.459-8.643-49.988-8.643-12.874,0-23.347-10.474-23.347-23.347 0-82.096-66.79-148.885-148.885-148.885s-148.884,66.789-148.884,148.884c0,1.268 0.016,2.531 0.047,3.791 0.98,84.188 34.406,163.434 94.125,223.152 56.706,56.707 131.024,89.684 210.457,93.708 0.287,0.033 0.574,0.054 0.863,0.054 0.046,0 0.092-0.005 0.138-0.006 3.888,0.185 7.784,0.324 11.695,0.37 1.26,0.031 2.523,0.047 3.791,0.047 82.095,0 148.884-66.789 148.884-148.884 0-64.105-40.725-118.876-97.661-139.803zm-357.293-28.861c7.10543e-15-0.034-0.001-0.069-0.002-0.104-0.029-1.151-0.044-2.306-0.044-3.464 1.77636e-15-73.824 60.06-133.884 133.884-133.884s133.884,60.06 133.884,133.884c0,18.847 13.671,34.551 31.615,37.743 7.273,69.405-22.072,138.396-77.484,181.24-3.277,2.533-3.879,7.244-1.346,10.521 1.478,1.912 3.696,2.913 5.938,2.913 1.602,0 3.217-0.511 4.582-1.567 29.634-22.912 52.979-53.27 67.514-87.792 13.839-32.868 19.299-68.794 15.955-104.437 11.765,0.735 23.124,2.991 33.879,6.582 33.021,90.223 8.822,194.002-60.733,260.327-46.505-2.819-90.371-16.272-129.183-37.921 16.268-4.673 31.908-11.215 46.68-19.562 3.606-2.038 4.877-6.613 2.84-10.22-2.039-3.606-6.614-4.878-10.22-2.84-17.928,10.131-37.227,17.418-57.416,21.693-83.239-54.225-139.131-147.699-140.343-253.112zm308.216,302.521c30.986-33.018 52.688-73.499 63.135-118.08 10.545-45.001 8.934-91.345-4.544-135.073 43.38,22.175 73.147,67.324 73.147,119.296 0,73.106-58.901,132.705-131.738,133.857z"/>
    </g>
  </g>
</svg>
