<?xml version="1.0" encoding="utf-8"?>
<!-- Uploaded to SVGRepo https://www.svgrepo.com -->
<svg version="1.1" id="Layer_1" xmlns="http://www.w3.org/2000/svg" xmlns:xlink="http://www.w3.org/1999/xlink" x="0px" y="0px"
	 width="256px" height="213px" viewBox="0 0 256 213" enable-background="new 0 0 256 213" xml:space="preserve">
<path d="M228.85,40H163V16.27C163,7.51,155.22,2,145.65,2h-36.3C99.98,2,92,7.51,92,16.27V41H27.16C14.14,41,2,52.06,2,66.67
	c0,0.39,0,117.57,0,117.57C2,200.52,14.17,211,27,211h201.95c12.77,0,25.05-9.59,25.05-26.07c0,0,0-118.46,0-118.96
	C253.9,51.19,241.82,40,228.85,40z M105,16h45v25h-45V16z M135.96,172.56v11.55h-16.6v-12.16c-8.72-1.76-16.76-5.59-24.33-11.71
	l12.55-12.46c0,0,9.18,7.19,17.74,8.26c9.87,1.22,15.84-2.91,16.53-8.49c1.3-10.33-21.5-14.38-29.68-18.28
	c-9.8-4.75-19.59-11.1-19.59-24.64c0-13.84,10.71-23.94,26.78-25.16V67h16.6v12.93c10.47,1.99,17.67,6.96,23.25,10.78l-11.4,13.31
	c-3.59-2.83-10.02-6.5-16.29-7.88c-7.96-1.68-16.52,0.23-17.14,8.04c-0.23,3.21,1.23,9.48,18.59,14.3
	c9.18,2.6,30.45,8.26,30.45,28.15C163.42,160.02,151.79,170.8,135.96,172.56z"/>
</svg>
