<?xml version="1.0" encoding="iso-8859-1"?>
<!-- Generator: Adobe Illustrator 19.0.0, SVG Export Plug-In . SVG Version: 6.00 Build 0)  -->
<svg version="1.1" id="Layer_1" xmlns="http://www.w3.org/2000/svg" xmlns:xlink="http://www.w3.org/1999/xlink" x="0px" y="0px"
	 viewBox="0 0 512 512" style="enable-background:new 0 0 512 512;" xml:space="preserve">
<path style="fill:#EFF2FA;" d="M414.897,512H97.103c-9.751,0-17.655-7.904-17.655-17.655V70.621L150.069,0h264.828
	c9.751,0,17.655,7.904,17.655,17.655v476.69C432.552,504.096,424.648,512,414.897,512z"/>
<path style="fill:#C7CFE2;" d="M150.069,0L79.448,70.621h52.966c9.751,0,17.655-7.904,17.655-17.655V0z"/>
<g>
	<path style="fill:#A0C88C;" d="M282.483,158.897H220.69c-4.875,0-8.828-3.948-8.828-8.828c0-4.879,3.953-8.828,8.828-8.828h61.793
		c4.875,0,8.828,3.948,8.828,8.828C291.31,154.948,287.358,158.897,282.483,158.897z"/>
	<path style="fill:#A0C88C;" d="M282.483,123.586h-79.448c-4.875,0-8.828-3.948-8.828-8.828c0-4.879,3.953-8.828,8.828-8.828h79.448
		c4.875,0,8.828,3.948,8.828,8.828C291.31,119.638,287.358,123.586,282.483,123.586z"/>
	<path style="fill:#A0C88C;" d="M282.483,88.276h-79.448c-4.875,0-8.828-3.948-8.828-8.828c0-4.879,3.953-8.828,8.828-8.828h79.448
		c4.875,0,8.828,3.948,8.828,8.828C291.31,84.328,287.358,88.276,282.483,88.276z"/>
</g>
<g>
	<path style="fill:#959CB3;" d="M370.759,220.69H141.241c-4.875,0-8.828-3.948-8.828-8.828c0-4.879,3.953-8.828,8.828-8.828h229.517
		c4.875,0,8.828,3.948,8.828,8.828C379.586,216.742,375.634,220.69,370.759,220.69z"/>
	<path style="fill:#959CB3;" d="M370.759,256H141.241c-4.875,0-8.828-3.948-8.828-8.828c0-4.879,3.953-8.828,8.828-8.828h229.517
		c4.875,0,8.828,3.948,8.828,8.828C379.586,252.052,375.634,256,370.759,256z"/>
	<path style="fill:#959CB3;" d="M370.759,291.31H141.241c-4.875,0-8.828-3.948-8.828-8.828s3.953-8.828,8.828-8.828h229.517
		c4.875,0,8.828,3.948,8.828,8.828S375.634,291.31,370.759,291.31z"/>
	<path style="fill:#959CB3;" d="M282.483,326.621H141.241c-4.875,0-8.828-3.948-8.828-8.828c0-4.879,3.953-8.828,8.828-8.828
		h141.241c4.875,0,8.828,3.948,8.828,8.828C291.31,322.673,287.358,326.621,282.483,326.621z"/>
	<path style="fill:#959CB3;" d="M282.483,361.931H141.241c-4.875,0-8.828-3.948-8.828-8.828c0-4.879,3.953-8.828,8.828-8.828
		h141.241c4.875,0,8.828,3.948,8.828,8.828C291.31,357.983,287.358,361.931,282.483,361.931z"/>
</g>
<g>
	<path style="fill:#707487;" d="M229.517,416.495h-88.276c-4.875,0-8.828-3.948-8.828-8.828c0-4.879,3.953-8.828,8.828-8.828h88.276
		c4.875,0,8.828,3.948,8.828,8.828C238.345,412.547,234.392,416.495,229.517,416.495z"/>
	<path style="fill:#707487;" d="M229.517,451.806h-52.966c-4.875,0-8.828-3.948-8.828-8.828s3.953-8.828,8.828-8.828h52.966
		c4.875,0,8.828,3.948,8.828,8.828S234.392,451.806,229.517,451.806z"/>
</g>
<path style="fill:#A0C88C;" d="M353.103,102.492V81.067c5.421,2.084,8.828,5.868,8.828,9.416c0,4.879,3.953,8.828,8.828,8.828
	c4.875,0,8.828-3.948,8.828-8.828c0-13.586-11.115-24.591-26.483-27.715v-0.974c0-4.879-3.953-8.828-8.828-8.828
	c-4.875,0-8.828,3.948-8.828,8.828v0.974c-15.368,3.124-26.483,14.13-26.483,27.715s11.115,24.591,26.483,27.715v21.425
	c-5.421-2.084-8.828-5.868-8.828-9.416c0-4.879-3.953-8.828-8.828-8.828s-8.828,3.948-8.828,8.828
	c0,13.586,11.115,24.591,26.483,27.715v0.974c0,4.879,3.953,8.828,8.828,8.828c4.875,0,8.828-3.948,8.828-8.828v-0.974
	c15.368-3.124,26.483-14.13,26.483-27.715S368.471,105.615,353.103,102.492z M326.621,90.483c0-3.548,3.406-7.331,8.828-9.416
	v18.831C330.027,97.814,326.621,94.03,326.621,90.483z M353.103,139.623v-18.831c5.421,2.084,8.828,5.868,8.828,9.416
	C361.931,133.754,358.525,137.538,353.103,139.623z"/>
<path style="fill:#5B5D6E;" d="M319.229,459.034c-4,0-7.832-1.819-10.37-5.009l-21.219-26.81l-17.009,14.836
	c-3.672,3.207-9.25,2.819-12.457-0.853c-3.202-3.672-2.819-9.25,0.853-12.457l23.987-20.914c1.819-1.587,4.185-2.37,6.612-2.138
	c2.406,0.224,4.612,1.422,6.112,3.31l21.965,27.75l9.164-26.379c2.091-6.017,7.069-10.327,13.319-11.543
	c6.246-1.233,12.474,0.931,16.668,5.732l2.552,2.931l21.241-39.328c2.315-4.276,7.69-5.897,11.961-3.569
	c4.293,2.319,5.888,7.672,3.573,11.966l-27.293,50.526c-1.375,2.543-3.914,4.258-6.788,4.577c-2.914,0.31-5.728-0.802-7.634-2.974
	l-10.922-12.526l-11.797,33.974c-1.594,4.569-5.543,7.905-10.302,8.707C320.703,458.974,319.966,459.034,319.229,459.034z"/>
<g>
</g>
<g>
</g>
<g>
</g>
<g>
</g>
<g>
</g>
<g>
</g>
<g>
</g>
<g>
</g>
<g>
</g>
<g>
</g>
<g>
</g>
<g>
</g>
<g>
</g>
<g>
</g>
<g>
</g>
</svg>
