<?xml version="1.0" encoding="utf-8"?>
<!-- Uploaded to SVGRepo https://www.svgrepo.com -->
<svg version="1.1" id="Layer_1" xmlns="http://www.w3.org/2000/svg" xmlns:xlink="http://www.w3.org/1999/xlink" x="0px" y="0px"
	 width="260px" height="241px" viewBox="0 0 260 241" enable-background="new 0 0 260 241" xml:space="preserve">
<path d="M254.23,215.978c-6.31,2.8-13.7-0.06-16.5-6.37c-2.79-6.31,0.06-13.7,6.37-16.5c3.29-1.45,6.86-1.38,9.93-0.08l-4.11-11.15
	c-0.8-2.25-3.3-3.39-5.53-2.53l-8.56,3.32c-6.86,1.87-17.45,2.73-26.05,1.38c-31.32-4.88-47.02,9.94-47.02,9.94
	c6.953,1.723,16.223,4.791,22.435,9.529c-10.788,3.255-22.543,5.239-34.428,3.52c-7.597-3.058-13.42-8.041-15.158-20.12
	c0,0-6.461,4.54-7.345,11.785c-2.576-1.625-14.014-10.972-17.06-13.372c-5.81-7.051-9.406-12.669-8.502-22.95
	c0,0-8.332,2.644-9.721,10.051c-8.21-5.067-15.833-8.662-23.146-10.945c-3.291-1.028-6.526-1.793-9.703-2.3
	c10.454-9.094,34.594-26.35,69.833-29.28c3.288-0.017,6.368,0.076,9.195,0.232c-1.491,3.206-1.76,6.136,0.669,9.27
	c5.87,7.57,24.79,3.06,46.4,28.01l9.01-8.72c-1.49,0-3.01-0.27-4.48-0.84c-6.45-2.48-9.65-9.72-7.17-16.17
	c2.49-6.44,9.73-9.65,16.17-7.16c3.35,1.3,5.83,3.88,7.07,6.97l4.98-10.8c1.02-2.15,0.07-4.73-2.12-5.7l-8.41-3.7
	c-6.16-3.53-14.26-10.41-19.39-17.44c-18.7-25.6-40.28-26.23-40.28-26.23c4.669,7.733,10.431,19.598,9.191,28.406
	c-1.856-0.216-3.884-0.421-6.083-0.596c-7.9-1.349-15.606-1.895-23.022-1.854c-8.246-0.723-14.29-3.722-18.329-12.358
	c0,0-4.195,6.858-1.501,13.851c-21.476,3.098-39.001,10.326-49.2,15.365c14.783-22.257,35.298-39.998,61.416-53.029
	c15.465-7.715,30.485-12.46,42.568-15.365c-0.58,4.346-0.092,7.759,3.86,10.1c8.24,4.89,24.18-6.26,53.45,9.02l5.17-11.43
	c-1.38,0.55-2.89,0.86-4.47,0.87c-6.9,0.05-12.54-5.51-12.6-12.41c-0.05-6.91,5.5-12.55,12.41-12.6c3.59-0.03,6.83,1.45,9.13,3.86
	l0.66-11.84c0.16-2.38-1.67-4.43-4.06-4.53l-9.18-0.36c-7.03-1.01-17.09-4.44-24.45-9.09C171.858,4.33,160,2,151,2
	c-6.988,0-11.52,2.038-11.52,2.038c6.727,5.123,15.67,13.27,18.49,21.385c-3.289,0.465-10.358,1.612-19.835,3.943
	c-13.531,0.825-20.497,0.216-30.526-8.828c0,0-1.229,9.61,3.474,17.107c-3.182,1.17-6.448,2.442-9.779,3.828
	c-8.191,2.439-17.216,3.202-25.652-5.529c0,0-2.178,10.327,2.936,16.434c-4.349,2.39-8.718,4.984-13.066,7.796
	c-10.778,4.116-17.43,4.856-26.498,0.531c0,0,0.256,8.401,6.779,14.024c-4.771,4.019-9.425,8.356-13.904,13.034
	c-8.389,6.192-14.866,8.71-22.95,6.482c0,0,2.171,8.213,8.942,10.169C11.826,112.661,6.713,121.773,2,131.788v103
	c3.071-4.946,8.365-13.402,13.274-18.669c16.167-17.349,41.667-24.216,66.075-12.167c17.485,8.631,36.502,21.215,56.063,25.778
	c7.723,2.077,15.305,2.902,22.498,2.902c14.407,0,27.253-3.297,36.557-6.409c1.409,6.787,2.525,11.928,8.713,12.715
	c9.5,1.2,19.89-15.37,52.82-13.01v-12.52C256.94,214.458,255.68,215.338,254.23,215.978z"/>
</svg>
