<?xml version="1.0" encoding="UTF-8" standalone="no"?>
<!-- Created with Inkscape (http://www.inkscape.org/) --><svg height="48px" id="svg7425" inkscape:output_extension="org.inkscape.output.svg.inkscape" inkscape:version="0.46" sodipodi:docname="drawing.svg" sodipodi:version="0.32" width="48px" xmlns="http://www.w3.org/2000/svg" xmlns:cc="http://creativecommons.org/ns#" xmlns:dc="http://purl.org/dc/elements/1.1/" xmlns:inkscape="http://www.inkscape.org/namespaces/inkscape" xmlns:rdf="http://www.w3.org/1999/02/22-rdf-syntax-ns#" xmlns:sodipodi="http://sodipodi.sourceforge.net/DTD/sodipodi-0.dtd" xmlns:svg="http://www.w3.org/2000/svg" xmlns:xlink="http://www.w3.org/1999/xlink">
  <metadata>
    <rdf:RDF xmlns:cc="http://web.resource.org/cc/" xmlns:dc="http://purl.org/dc/elements/1.1/" xmlns:rdf="http://www.w3.org/1999/02/22-rdf-syntax-ns#">
      <cc:Work rdf:about="">
        <dc:title></dc:title>
        <dc:description></dc:description>
        <dc:subject>
          <rdf:Bag>
            <rdf:li>unsorted</rdf:li>
          </rdf:Bag>
        </dc:subject>
        <dc:publisher>
          <cc:Agent rdf:about="http://www.openclipart.org/">
            <dc:title>Open Clip Art Library, Source: GNOME-Colors, Source: GNOME-Colors, Source: GNOME-Colors, Source: GNOME-Colors, Source: GNOME-Colors</dc:title>
          </cc:Agent>
        </dc:publisher>
        <dc:creator>
          <cc:Agent>
            <dc:title></dc:title>
          </cc:Agent>
        </dc:creator>
        <dc:rights>
          <cc:Agent>
            <dc:title></dc:title>
          </cc:Agent>
        </dc:rights>
        <dc:date></dc:date>
        <dc:format>image/svg+xml</dc:format>
        <dc:type rdf:resource="http://purl.org/dc/dcmitype/StillImage"/>
        <cc:license rdf:resource="http://creativecommons.org/licenses/GPL/2.0/"/>
        <dc:language>en</dc:language>
      </cc:Work>
    </rdf:RDF>
  </metadata>
  <defs id="defs7427">
    <linearGradient id="linearGradient9690-0" inkscape:collect="always">
      <stop id="stop9692-4" offset="0" style="stop-color:#ffffff;stop-opacity:1;"/>
      <stop id="stop9694-1" offset="1" style="stop-color:#ffffff;stop-opacity:0;"/>
    </linearGradient>
    <linearGradient gradientTransform="matrix(0.182877,0,0,0.182877,-2.233974,-5.1275515)" gradientUnits="userSpaceOnUse" id="linearGradient10629" inkscape:collect="always" x1="132.25" x2="33.999996" xlink:href="#linearGradient9690-0" y1="93" y2="207"/>
    <linearGradient id="linearGradient5202-3" inkscape:collect="always">
      <stop id="stop5204-6" offset="0" style="stop-color:#ffffff;stop-opacity:1;"/>
      <stop id="stop5206-05" offset="1" style="stop-color:#ffffff;stop-opacity:0;"/>
    </linearGradient>
    <linearGradient gradientUnits="userSpaceOnUse" id="linearGradient10627" inkscape:collect="always" x1="22.109375" x2="22.109375" xlink:href="#linearGradient5202-3" y1="11.34375" y2="49.612667"/>
    <linearGradient id="linearGradient8933">
      <stop id="stop8935" offset="0" style="stop-color:#a40000;stop-opacity:1"/>
      <stop id="stop8937" offset="1" style="stop-color:#7c0000;stop-opacity:1;"/>
    </linearGradient>
    <linearGradient gradientUnits="userSpaceOnUse" id="linearGradient10625" inkscape:collect="always" x1="22.097088" x2="22.097088" xlink:href="#linearGradient8933" y1="19.875492" y2="39.529873"/>
    <linearGradient id="linearGradient8082" inkscape:collect="always">
      <stop id="stop8084" offset="0" style="stop-color:#ef2929;stop-opacity:1"/>
      <stop id="stop8086" offset="0.64417422" style="stop-color:#cc0000;stop-opacity:1"/>
      <stop id="stop8088" offset="1" style="stop-color:#ef2929;stop-opacity:1"/>
    </linearGradient>
    <linearGradient gradientUnits="userSpaceOnUse" id="linearGradient10623" inkscape:collect="always" x1="22.097088" x2="24.238203" xlink:href="#linearGradient8082" y1="8.0084705" y2="38.43652"/>
    <filter height="1.6702595" id="filter5186-4" inkscape:collect="always" width="1.3351299" x="-0.16756488" y="-0.33512974">
      <feGaussianBlur id="feGaussianBlur5188-3" inkscape:collect="always" stdDeviation="1.8152862"/>
    </filter>
    <linearGradient id="linearGradient5130-4" inkscape:collect="always">
      <stop id="stop5132-3" offset="0" style="stop-color:#000000;stop-opacity:1;"/>
      <stop id="stop5134-51" offset="1" style="stop-color:#000000;stop-opacity:0;"/>
    </linearGradient>
    <radialGradient cx="22" cy="38.5" fx="22" fy="38.5" gradientTransform="matrix(1,0,0,0.5,0,19.25)" gradientUnits="userSpaceOnUse" id="radialGradient10621" inkscape:collect="always" r="13" xlink:href="#linearGradient5130-4"/>
  </defs>
  <sodipodi:namedview bordercolor="#666666" borderopacity="1.0" id="base" inkscape:current-layer="layer1" inkscape:cx="24" inkscape:cy="24" inkscape:document-units="px" inkscape:grid-bbox="true" inkscape:pageopacity="0.0" inkscape:pageshadow="2" inkscape:window-height="688" inkscape:window-width="641" inkscape:window-x="1037" inkscape:window-y="333" inkscape:zoom="7" pagecolor="#ffffff" showgrid="true"/>
  <g id="layer1" inkscape:groupmode="layer" inkscape:label="Layer 1">
    <g id="g10575" inkscape:label="Layer 1" style="display:inline;enable-background:new" transform="translate(-0.4507394,-0.9610005)">
      <path d="M 35,38.5 A 13,6.5 0 1 1 9,38.5 A 13,6.5 0 1 1 35,38.5 z" id="path10577" sodipodi:cx="22" sodipodi:cy="38.5" sodipodi:rx="13" sodipodi:ry="6.5" sodipodi:type="arc" style="opacity:0.43373497;fill:url(#radialGradient10621);fill-opacity:1;fill-rule:nonzero;stroke:none;stroke-width:1;marker:none;visibility:visible;display:inline;overflow:visible;filter:url(#filter5186-4);enable-background:accumulate" transform="matrix(1.3257204,0,0,1.3060079,-3.6937336,-12.797355)"/>
      <path d="M 35.099492,35.723338 L 26.703003,33.840596 L 22.097088,41.10911 L 17.491173,33.840597 L 9.094684,35.723338 L 10.977425,27.32685 L 3.7089119,22.720934 L 10.977425,18.115019 L 9.0946839,9.71853 L 17.491172,11.601271 L 22.097088,4.3327579 L 26.703002,11.601271 L 35.099492,9.71853 L 33.21675,18.115018 L 40.485264,22.720934 L 33.216751,27.326849 L 35.099492,35.723338 z" id="path10579" inkscape:flatsided="false" inkscape:randomized="0" inkscape:rounded="0" sodipodi:arg1="0.78539816" sodipodi:arg2="1.1780972" sodipodi:cx="22.097088" sodipodi:cy="22.720934" sodipodi:r1="18.388176" sodipodi:r2="12.035836" sodipodi:sides="8" sodipodi:type="star" style="fill:url(#linearGradient10623);fill-opacity:1;fill-rule:nonzero;stroke:url(#linearGradient10625);stroke-width:1.00000012;stroke-linecap:butt;stroke-linejoin:miter;marker:none;stroke-miterlimit:4;stroke-dasharray:none;stroke-dashoffset:0;stroke-opacity:1;visibility:visible;display:inline;overflow:visible;enable-background:accumulate" transform="matrix(1.1209343,0,0,1.1042669,-0.1974224,-1.3744715)"/>
      <path d="M 22.09375,6.28125 L 18.375,12.15625 C 18.144232,12.525755 17.707972,12.712723 17.28125,12.625 L 10.46875,11.09375 L 12,17.90625 C 12.087723,18.332972 11.900755,18.769232 11.53125,19 L 5.65625,22.71875 L 11.53125,26.4375 C 11.900755,26.668268 12.087723,27.104528 12,27.53125 L 10.46875,34.34375 L 17.28125,32.8125 C 17.707972,32.724777 18.144232,32.911745 18.375,33.28125 L 22.09375,39.15625 L 25.8125,33.28125 C 26.043268,32.911745 26.479528,32.724777 26.90625,32.8125 L 33.71875,34.34375 L 32.1875,27.53125 C 32.099777,27.104528 32.286745,26.668268 32.65625,26.4375 L 38.5625,22.71875 L 32.65625,19 C 32.286745,18.769232 32.099777,18.332972 32.1875,17.90625 L 33.71875,11.09375 L 26.90625,12.625 C 26.479528,12.712723 26.043268,12.525755 25.8125,12.15625 L 22.09375,6.28125 z" id="path10581" inkscape:href="#path4547-2" inkscape:original="M 22.09375 4.34375 L 17.5 11.59375 L 9.09375 9.71875 L 10.96875 18.125 L 3.71875 22.71875 L 10.96875 27.3125 L 9.09375 35.71875 L 17.5 33.84375 L 22.09375 41.09375 L 26.6875 33.84375 L 35.09375 35.71875 L 33.21875 27.3125 L 40.5 22.71875 L 33.21875 18.125 L 35.09375 9.71875 L 26.6875 11.59375 L 22.09375 4.34375 z " inkscape:radius="-1.0420188" sodipodi:type="inkscape:offset" style="opacity:0.33734939;fill:none;stroke:url(#linearGradient10627);stroke-width:1;stroke-linecap:butt;stroke-linejoin:miter;marker:none;stroke-miterlimit:4;stroke-dasharray:none;stroke-dashoffset:0;stroke-opacity:1;visibility:visible;display:inline;overflow:visible;enable-background:accumulate" transform="matrix(1.1263736,0,0,1.1263736,-0.2940419,-1.8085508)" xlink:href="#path4547-2"/>
      <path d="M 719.03921,80.378562 C 717.89509,80.378562 717.015,79.484224 717.015,78.321584 C 717.015,77.069511 717.80708,76.264606 719.03921,76.264606 C 720.27133,76.264606 720.9754,77.069511 721.06341,78.321584 C 721.06341,79.484224 720.27133,80.378562 719.03921,80.378562 L 719.03921,80.378562 z M 718.39465,73.730727 L 717.27903,64.817079 L 720.79938,64.817079 L 719.68376,75.199913 L 718.39465,73.730727 z" id="path11163" inkscape:r_cx="true" inkscape:r_cy="true" sodipodi:nodetypes="csscccccccc" style="fill:#eeeeec;fill-opacity:1;fill-rule:nonzero;stroke:none;stroke-width:0.98018837;stroke-miterlimit:4;display:inline;enable-background:new" transform="translate(-694.54926,-49.039009)"/>
      <path d="M 12.579065,29.893399 C 19.998861,24.564906 28.499973,21.716979 36.35308,18.555024 L 38.456162,10.325557 L 29.403749,12.062889 L 24.64895,4.747808 L 19.802706,11.880014 L 10.933173,10.051242 L 13.127695,18.829339 L 5.4468617,23.767018 L 12.862214,28.370356 L 12.579065,29.893399 L 12.579065,29.893399 z" id="path10585" sodipodi:nodetypes="ccccccccccc" style="opacity:0.25;fill:url(#linearGradient10629);fill-opacity:1;fill-rule:nonzero;stroke:none;stroke-width:2;marker:none;visibility:visible;display:inline;overflow:visible;enable-background:accumulate"/>
    </g>
  </g>
</svg>
