<?xml version="1.0" encoding="iso-8859-1"?>
<!-- Generator: Adobe Illustrator 19.0.0, SVG Export Plug-In . SVG Version: 6.00 Build 0)  -->
<svg version="1.1" id="Layer_1" xmlns="http://www.w3.org/2000/svg" xmlns:xlink="http://www.w3.org/1999/xlink" x="0px" y="0px"
	 viewBox="0 0 510.827 510.827" style="enable-background:new 0 0 510.827 510.827;" xml:space="preserve">
<g>
	<g>
		<path d="M493.493,271.52L508,228.853c7.68-17.92-0.853-39.253-18.773-47.787L298.08,98.293c-27.307-11.093-58.027-11.093-85.333,0
			L21.6,181.92C3.68,189.6-4.853,211.787,2.827,228.853l14.507,42.667c0.853,3.413,4.267,5.973,7.68,5.973v44.373
			c-10.24,3.413-17.067,12.8-17.067,23.893v11.947c0,16.213,11.093,30.72,27.307,34.987c73.387,18.773,145.92,28.16,220.16,28.16
			c70.827,0,136.533-8.533,220.16-29.013c16.213-4.267,27.307-18.773,27.307-34.987v-9.387c0-11.947-6.827-22.187-17.067-25.6
			v-44.373C489.227,277.493,492.64,274.933,493.493,271.52z M234.08,131.573c7.68-6.827,18.773-9.387,29.013-6.827
			c12.8,2.56,23.893,13.653,26.453,26.453c2.56,11.093-1.707,19.627-5.973,24.747l2.56,5.12c8.533,17.067,3.413,38.4-11.947,49.493
			l-13.653,11.093c-1.707,0.853-3.413,1.707-5.12,1.707s-3.413-0.853-5.12-1.707l-11.947-9.387
			c-16.213-11.947-21.333-33.28-11.947-51.2l2.56-4.267c-4.267-5.12-7.68-11.093-7.68-18.773
			C221.28,147.787,225.547,138.4,234.08,131.573z M468.747,320.16H42.08v-42.667h426.667V320.16z"/>
	</g>
</g>
<g>
	<g>
		<path d="M263.947,177.653c-1.707-3.413-0.853-7.68,1.707-10.24c5.12-5.12,6.827-8.533,5.973-14.507
			c-1.707-6.827-6.827-11.947-12.8-13.653c-0.853,0-2.56,0-3.413,0c-4.267,0-7.68,1.707-11.093,3.413
			c-3.413,5.12-5.973,10.24-5.973,15.36c0,3.413,1.707,6.827,5.973,11.093c2.56,2.56,3.413,6.827,1.707,9.387l-5.12,9.387
			c-5.12,10.24-2.56,23.04,6.827,29.867l6.827,5.12l7.68-5.973c8.533-6.827,11.947-18.773,6.827-28.16L263.947,177.653z"/>
	</g>
</g>
<g>
</g>
<g>
</g>
<g>
</g>
<g>
</g>
<g>
</g>
<g>
</g>
<g>
</g>
<g>
</g>
<g>
</g>
<g>
</g>
<g>
</g>
<g>
</g>
<g>
</g>
<g>
</g>
<g>
</g>
</svg>
