<?xml version="1.0" encoding="iso-8859-1"?>
<!-- Generator: Adobe Illustrator 18.1.1, SVG Export Plug-In . SVG Version: 6.00 Build 0)  -->
<svg version="1.1" id="Capa_1" xmlns="http://www.w3.org/2000/svg" xmlns:xlink="http://www.w3.org/1999/xlink" x="0px" y="0px"
	 viewBox="0 0 612 612" style="enable-background:new 0 0 612 612;" xml:space="preserve">
<path d="M298.527,294.53l21.755-21.755l12.596,12.596l-21.755,21.755L298.527,294.53z M291.588,287.591l21.756-21.756
	l-12.596-12.596l-21.756,21.756L291.588,287.591z M272.053,268.063l21.756-21.756l-12.596-12.596l-21.756,21.756L272.053,268.063z
	 M252.518,248.521l21.756-21.756l-12.596-12.596l-21.756,21.756L252.518,248.521z M586.173,571.598l-32.433,32.433
	c-5.138,5.138-11.972,7.969-19.24,7.969c-7.268,0-14.1-2.831-19.24-7.969l-11.567-11.567c-6.635-6.635-9.119-15.872-7.456-24.456
	c-24.798-17.844-52.874-42.117-79.665-68.906c-32.24-32.24-60.089-65.442-78.414-93.487c-0.5-0.768-1.281-1.113-1.674-1.113
	c-11.494,1.77-20.44-0.146-26.184-5.574l-40.723,40.723l-36.645-36.645l43.354-43.354L67.7,151.066
	c-36.611-36.611-56.674-91.987-47.704-131.67L24.38,0l11.553,16.184c4.853,6.798,10.503,13.434,16.795,19.726
	c16.908,16.908,42.387,33.988,61.195,34.03l3.678,0.008l134.535,134.535l-12.596,12.596L110.052,87.589
	c-20.807-1.682-47.179-16.343-69.92-39.084c-1.482-1.48-2.933-2.98-4.35-4.497c1.521,31.116,18.558,68.505,44.515,94.462
	l208.588,208.586l52.917-52.917l28.406,28.406c3.88,0.486,7.624,2.309,10.507,5.192c3.334,3.334,5.427,7.828,6.22,13.358
	c1.409,9.825,6.873,18.817,14.991,24.668c24.974,18.003,52.403,41.746,79.322,68.665c26.786,26.788,51.056,54.861,68.9,79.656
	c1.704-0.329,3.449-0.504,5.223-0.504c7.268,0,14.102,2.831,19.24,7.971l11.567,11.566
	C596.783,543.727,596.783,560.988,586.173,571.598z M320.772,363.269l32.482-32.483L341.8,319.332l-83.675,83.673l11.456,11.456
	L320.772,363.269z M371.187,351.948c-0.844-2.711-1.48-5.491-1.887-8.322c-0.172-1.198-0.478-2.209-0.85-2.844l-45.527,45.526
	c0.915,0.542,2.742,1.028,5.621,1.028c1.577,0,3.32-0.147,5.177-0.434c0.896-0.139,1.81-0.209,2.722-0.211L371.187,351.948z
	 M505.182,552.494l29.457-29.457c-17.188-23.669-40.381-50.403-65.99-76.012c-26.255-26.253-52.929-49.357-77.142-66.811
	c-4.526-3.263-8.497-7.19-11.799-11.596l-26.9,26.9c0.084,0.121,0.183,0.228,0.264,0.353c17.672,27.049,44.698,59.237,76.098,90.634
	C454.779,512.113,481.514,535.306,505.182,552.494z M573.579,545.711l-11.567-11.566c-1.775-1.775-4.134-2.753-6.644-2.753
	s-4.869,0.978-6.644,2.753l-32.433,32.433c-3.665,3.663-3.665,9.626,0,13.289l11.567,11.567c1.775,1.775,4.134,2.753,6.644,2.753
	c2.51,0,4.87-0.976,6.644-2.751l32.433-32.433C577.242,555.339,577.242,549.377,573.579,545.711z"/>
<g>
</g>
<g>
</g>
<g>
</g>
<g>
</g>
<g>
</g>
<g>
</g>
<g>
</g>
<g>
</g>
<g>
</g>
<g>
</g>
<g>
</g>
<g>
</g>
<g>
</g>
<g>
</g>
<g>
</g>
</svg>
