<?xml version="1.0" encoding="iso-8859-1"?>
<!-- Generator: Adobe Illustrator 17.1.0, SVG Export Plug-In . SVG Version: 6.00 Build 0)  -->
<!DOCTYPE svg PUBLIC "-//W3C//DTD SVG 1.1//EN" "http://www.w3.org/Graphics/SVG/1.1/DTD/svg11.dtd">
<svg version="1.1" id="Capa_1" xmlns="http://www.w3.org/2000/svg" xmlns:xlink="http://www.w3.org/1999/xlink" x="0px" y="0px"
	 viewBox="0 0 405.051 405.051" style="enable-background:new 0 0 405.051 405.051;" xml:space="preserve">
<path id="XMLID_29_" d="M270.753,120.589c0,4.971-4.029,9-9,9h-78.773c-4.971,0-9-4.029-9-9s4.029-9,9-9h78.773
	C266.724,111.589,270.753,115.618,270.753,120.589z M243.035,167.362c4.971,0,9-4.029,9-9s-4.029-9-9-9h-41.337
	c-4.971,0-9,4.029-9,9s4.029,9,9,9H243.035z M270.753,207.572c0-4.971-4.029-9-9-9h-78.773c-4.971,0-9,4.029-9,9s4.029,9,9,9h78.773
	C266.724,216.572,270.753,212.543,270.753,207.572z M201.698,236.347c-4.971,0-9,4.029-9,9s4.029,9,9,9h41.337c4.971,0,9-4.029,9-9
	s-4.029-9-9-9H201.698z M343.842,52.493v55.692c0,4.971,4.029,9,9,9s9-4.029,9-9V52.493C361.842,23.548,338.294,0,309.349,0H55.574
	C30.586,0,10.257,20.329,10.257,45.316v80.082c0,4.971,4.029,9,9,9h33.464c4.971,0,9-4.029,9-9s-4.029-9-9-9H28.257V45.316
	C28.257,30.254,40.511,18,55.574,18s27.317,12.254,27.317,27.316v268.126c0,28.944,23.548,52.493,52.492,52.493H303.06
	c4.971,0,9-4.029,9-9s-4.029-9-9-9H135.383c-19.019,0-34.492-15.474-34.492-34.493V45.316c0-10.25-3.42-19.716-9.18-27.316h217.638
	C328.368,18,343.842,33.474,343.842,52.493z M369.319,150.028h-16.478c-4.971,0-9,4.029-9,9s4.029,9,9,9h16.478
	c4.121,0,7.475,3.354,7.475,7.477v103.377c0,4.971,4.029,9,9,9s9-4.029,9-9V175.505
	C394.794,161.457,383.366,150.028,369.319,150.028z M352.842,385.456c-4.971,0-9,4.029-9,9v1.595c0,4.971,4.029,9,9,9s9-4.029,9-9
	v-1.595C361.842,389.485,357.813,385.456,352.842,385.456z M352.842,182.897c-4.971,0-9,4.029-9,9v172.15c0,4.971,4.029,9,9,9
	s9-4.029,9-9v-172.15C361.842,186.927,357.813,182.897,352.842,182.897z"/>
<g>
</g>
<g>
</g>
<g>
</g>
<g>
</g>
<g>
</g>
<g>
</g>
<g>
</g>
<g>
</g>
<g>
</g>
<g>
</g>
<g>
</g>
<g>
</g>
<g>
</g>
<g>
</g>
<g>
</g>
</svg>
