<?xml version="1.0" encoding="iso-8859-1"?>
<!-- Generator: Adobe Illustrator 19.0.0, SVG Export Plug-In . SVG Version: 6.00 Build 0)  -->
<svg version="1.1" id="Layer_1" xmlns="http://www.w3.org/2000/svg" xmlns:xlink="http://www.w3.org/1999/xlink" x="0px" y="0px"
	 viewBox="0 0 512 512" style="enable-background:new 0 0 512 512;" xml:space="preserve">
<rect x="89.096" y="125.157" style="fill:#363640;" width="333.809" height="349.167"/>
<rect x="385.347" style="fill:#FF6465;" width="86.229" height="140.213"/>
<g>
	<path style="fill:#D7565A;" d="M83.539,325.142L60.26,327.07v109.567h88.797c-8.493-66.097-38.908-106.369-38.908-106.369
		L83.539,325.142z"/>
	<path style="fill:#D7565A;" d="M428.457,325.142l23.279,1.928v109.567h-88.797c8.493-66.097,38.908-106.369,38.908-106.369
		L428.457,325.142z"/>
</g>
<path style="opacity:0.1;enable-background:new    ;" d="M60.26,371.856c28.279,0,49.913-5.474,64.656-16.301
	c-8.023-16.35-14.768-25.287-14.768-25.287l-26.61-5.127l-23.279,1.928L60.26,371.856L60.26,371.856z"/>
<path style="fill:#F2CC7B;" d="M105.816,276.497L60.26,311.05v31.851c78.759,0,53.973-45.663,53.973-45.663L105.816,276.497z"/>
<path style="opacity:0.1;enable-background:new    ;" d="M451.736,371.856c-28.279,0-49.913-5.474-64.656-16.301
	c8.023-16.35,14.768-25.287,14.768-25.287l26.61-5.127l23.279,1.928L451.736,371.856L451.736,371.856z"/>
<path style="fill:#F2CC7B;" d="M406.18,276.497l45.556,34.553v31.851c-78.759,0-53.973-45.663-53.973-45.663L406.18,276.497z"/>
<g>
	<path style="fill:#D7565A;" d="M60.26,136.738v176.05c112.732,0,96.517-145.162,96.517-145.162v-30.887
		C156.777,136.738,60.26,136.738,60.26,136.738z"/>
	<path style="fill:#D7565A;" d="M451.736,136.738v176.05c-112.732,0-96.517-145.162-96.517-145.162v-30.887
		C355.218,136.738,451.736,136.738,451.736,136.738z"/>
</g>
<rect x="299.106" style="fill:#E6DFD0;" width="86.229" height="140.213"/>
<rect x="212.889" style="fill:#FF6465;" width="86.229" height="140.213"/>
<path style="fill:#FF8080;" d="M212.883,125.155v34.178c0,23.812,19.303,43.115,43.115,43.115l0,0
	c23.812,0,43.115-19.303,43.115-43.115v-34.178C299.112,125.155,212.883,125.155,212.883,125.155z"/>
<rect x="126.648" style="fill:#E6DFD0;" width="86.229" height="140.213"/>
<path style="opacity:0.1;enable-background:new    ;" d="M156.777,136.738H60.26v90.787c7.308,2.502,15.133,3.88,23.279,3.88
	c16.154,0,31.083-5.342,43.116-14.353c7.828,5.863,16.889,10.159,26.711,12.455c6.701-32.394,3.413-61.881,3.413-61.881v-30.888
	H156.777z"/>
<path style="fill:#FFF7E6;" d="M126.653,125.155v34.178c0,23.812,19.303,43.115,43.115,43.115l0,0
	c23.812,0,43.115-19.303,43.115-43.115v-34.178C212.882,125.155,126.653,125.155,126.653,125.155z"/>
<rect x="40.424" style="fill:#FF6465;" width="86.229" height="140.213"/>
<path style="fill:#FF8080;" d="M40.424,125.155v34.178c0,23.812,19.303,43.115,43.115,43.115l0,0
	c23.812,0,43.115-19.303,43.115-43.115v-34.178C126.653,125.155,40.424,125.155,40.424,125.155z"/>
<path style="opacity:0.1;enable-background:new    ;" d="M355.218,136.738h96.517v90.787c-7.308,2.502-15.133,3.88-23.279,3.88
	c-16.154,0-31.083-5.342-43.116-14.353c-7.828,5.863-16.889,10.159-26.711,12.455c-6.701-32.394-3.413-61.881-3.413-61.881v-30.888
	H355.218z"/>
<path style="fill:#8CD76E;" d="M294.52,453.917c0,9.328-17.247,16.89-38.522,16.89s-38.522-7.562-38.522-16.89V343.291h77.044
	V453.917L294.52,453.917z"/>
<path style="opacity:0.1;enable-background:new    ;" d="M217.476,389.485c11.875,3.442,24.854,5.324,38.522,5.324
	c13.668,0,26.647-1.882,38.522-5.324c0-22.469,0-46.194,0-46.194h-77.044C217.476,343.291,217.476,367.016,217.476,389.485z"/>
<path style="fill:#8CD76E;" d="M180.617,308.765c-0.049,0.247-0.095,0.493-0.139,0.741c-0.343,1.941-0.521,3.915-0.521,5.916
	c0,27.853,34.046,50.432,76.043,50.432s76.043-22.579,76.043-50.432c0-2.257-0.227-4.479-0.66-6.659l-75.382-13.884L180.617,308.765
	z"/>
<rect x="60.26" y="436.635" style="fill:#C89173;" width="391.476" height="75.365"/>
<path style="fill:#B9E578;" d="M180.617,308.765c17.398,9.734,44.69,16.005,75.382,16.005s57.985-6.272,75.382-16.005
	c-4.914-24.706-36.788-43.774-75.382-43.774S185.53,284.059,180.617,308.765z"/>
<circle style="fill:#FFF7E6;" cx="214.094" cy="259.776" r="27.191"/>
<circle style="fill:#363640;" cx="214.094" cy="252.641" r="10.329"/>
<circle style="fill:#FFF7E6;" cx="297.902" cy="259.776" r="27.191"/>
<circle style="fill:#363640;" cx="297.902" cy="252.641" r="10.329"/>
<path style="fill:#FF8080;" d="M385.342,125.155v34.178c0,23.812,19.303,43.115,43.115,43.115l0,0
	c23.812,0,43.115-19.303,43.115-43.115v-34.178C471.571,125.155,385.342,125.155,385.342,125.155z"/>
<path style="fill:#FFF7E6;" d="M299.112,125.155v34.178c0,23.812,19.303,43.115,43.115,43.115l0,0
	c23.812,0,43.115-19.303,43.115-43.115v-34.178C385.341,125.155,299.112,125.155,299.112,125.155z"/>
<g>
</g>
<g>
</g>
<g>
</g>
<g>
</g>
<g>
</g>
<g>
</g>
<g>
</g>
<g>
</g>
<g>
</g>
<g>
</g>
<g>
</g>
<g>
</g>
<g>
</g>
<g>
</g>
<g>
</g>
</svg>
