<?xml version="1.0" encoding="UTF-8" standalone="no"?>
<!-- Created with Inkscape (http://www.inkscape.org/) --><svg height="128" id="svg1307" inkscape:output_extension="org.inkscape.output.svgz.inkscape" inkscape:version="0.45.1" sodipodi:docbase="/home/jakob/dev/kde/src/kdebase/runtime/pics/oxygen/scalable/apps" sodipodi:docname="preferences-other.svgz" sodipodi:version="0.32" version="1.0" width="128" xmlns="http://www.w3.org/2000/svg" xmlns:cc="http://web.resource.org/cc/" xmlns:dc="http://purl.org/dc/elements/1.1/" xmlns:inkscape="http://www.inkscape.org/namespaces/inkscape" xmlns:rdf="http://www.w3.org/1999/02/22-rdf-syntax-ns#" xmlns:sodipodi="http://sodipodi.sourceforge.net/DTD/sodipodi-0.dtd" xmlns:svg="http://www.w3.org/2000/svg" xmlns:xlink="http://www.w3.org/1999/xlink">
  <metadata>
    <rdf:RDF xmlns:cc="http://web.resource.org/cc/" xmlns:dc="http://purl.org/dc/elements/1.1/" xmlns:rdf="http://www.w3.org/1999/02/22-rdf-syntax-ns#">
      <cc:Work rdf:about="">
        <dc:title></dc:title>
        <dc:description></dc:description>
        <dc:subject>
          <rdf:Bag>
            <rdf:li>unsorted</rdf:li>
          </rdf:Bag>
        </dc:subject>
        <dc:publisher>
          <cc:Agent rdf:about="http://www.openclipart.org/">
            <dc:title>Open Clip Art Library, Source: Oxygen Icons, Source: Oxygen Icons, Source: Oxygen Icons, Source: Oxygen Icons</dc:title>
          </cc:Agent>
        </dc:publisher>
        <dc:creator>
          <cc:Agent>
            <dc:title></dc:title>
          </cc:Agent>
        </dc:creator>
        <dc:rights>
          <cc:Agent>
            <dc:title></dc:title>
          </cc:Agent>
        </dc:rights>
        <dc:date></dc:date>
        <dc:format>image/svg+xml</dc:format>
        <dc:type rdf:resource="http://purl.org/dc/dcmitype/StillImage"/>
        <cc:license rdf:resource="http://creativecommons.org/licenses/by-sa/3.0/ or http://creativecommons.org/licenses/LGPL/2.1/"/>
        <dc:language>en</dc:language>
      </cc:Work>
    </rdf:RDF>
  </metadata>
  <defs id="defs1309">
    <linearGradient id="linearGradient3578">
      <stop id="stop3580" offset="0" style="stop-color:#a2a2a2;stop-opacity:1;"/>
      <stop id="stop3582" offset="1" style="stop-color:#e0e0e0;stop-opacity:1;"/>
    </linearGradient>
    <linearGradient id="linearGradient3513">
      <stop id="stop3515" offset="0" style="stop-color:#f9f9f9;stop-opacity:1;"/>
      <stop id="stop3517" offset="1" style="stop-color:#d1d1d1;stop-opacity:1;"/>
    </linearGradient>
    <linearGradient id="linearGradient6184" inkscape:collect="always">
      <stop id="stop6186" offset="0" style="stop-color:#ffffff;stop-opacity:1;"/>
      <stop id="stop6188" offset="1" style="stop-color:#ffffff;stop-opacity:0;"/>
    </linearGradient>
    <linearGradient id="linearGradient2648" inkscape:collect="always">
      <stop id="stop2650" offset="0" style="stop-color:#ffffff;stop-opacity:1;"/>
      <stop id="stop2652" offset="1" style="stop-color:#ffffff;stop-opacity:0;"/>
    </linearGradient>
    <linearGradient id="linearGradient34264" inkscape:collect="always">
      <stop id="stop34266" offset="0" style="stop-color:#ffffff;stop-opacity:1;"/>
      <stop id="stop34268" offset="1" style="stop-color:#ffffff;stop-opacity:0;"/>
    </linearGradient>
    <linearGradient id="linearGradient29877" inkscape:collect="always">
      <stop id="stop29879" offset="0" style="stop-color:#000000;stop-opacity:1;"/>
      <stop id="stop29881" offset="1" style="stop-color:#000000;stop-opacity:0;"/>
    </linearGradient>
    <linearGradient id="linearGradient26369" inkscape:collect="always">
      <stop id="stop26371" offset="0" style="stop-color:#000000;stop-opacity:1;"/>
      <stop id="stop26373" offset="1" style="stop-color:#000000;stop-opacity:0;"/>
    </linearGradient>
    <linearGradient id="linearGradient25485">
      <stop id="stop25487" offset="0" style="stop-color:#000000;stop-opacity:1;"/>
      <stop id="stop25489" offset="1" style="stop-color:#000000;stop-opacity:0;"/>
    </linearGradient>
    <linearGradient id="linearGradient23722" inkscape:collect="always">
      <stop id="stop23724" offset="0" style="stop-color:#000000;stop-opacity:1;"/>
      <stop id="stop23726" offset="1" style="stop-color:#000000;stop-opacity:0;"/>
    </linearGradient>
    <linearGradient id="linearGradient22831">
      <stop id="stop22833" offset="0" style="stop-color:#ffffff;stop-opacity:1;"/>
      <stop id="stop22835" offset="1" style="stop-color:#888a85;stop-opacity:0;"/>
    </linearGradient>
    <linearGradient id="linearGradient17579">
      <stop id="stop17581" offset="0" style="stop-color:#ffffff;stop-opacity:1;"/>
      <stop id="stop17583" offset="1" style="stop-color:#000000;stop-opacity:0;"/>
    </linearGradient>
    <linearGradient id="linearGradient15825">
      <stop id="stop15827" offset="0" style="stop-color:#ffffff;stop-opacity:1;"/>
      <stop id="stop15829" offset="1" style="stop-color:#555753;stop-opacity:0;"/>
    </linearGradient>
    <linearGradient id="linearGradient13184">
      <stop id="stop13186" offset="0" style="stop-color:#000000;stop-opacity:0.66666669;"/>
      <stop id="stop13188" offset="1" style="stop-color:#000000;stop-opacity:0;"/>
    </linearGradient>
    <linearGradient id="linearGradient11428" inkscape:collect="always">
      <stop id="stop11430" offset="0" style="stop-color:#ffffff;stop-opacity:1;"/>
      <stop id="stop11432" offset="1" style="stop-color:#ffffff;stop-opacity:0;"/>
    </linearGradient>
    <linearGradient id="linearGradient10539">
      <stop id="stop10541" offset="0" style="stop-color:#ffffff;stop-opacity:1;"/>
      <stop id="stop10543" offset="1" style="stop-color:#888a85;stop-opacity:0;"/>
    </linearGradient>
    <linearGradient id="linearGradient6818">
      <stop id="stop6820" offset="0" style="stop-color:#ffffff;stop-opacity:1;"/>
      <stop id="stop6822" offset="1" style="stop-color:#3e3e3e;stop-opacity:0;"/>
    </linearGradient>
    <linearGradient id="linearGradient5928" inkscape:collect="always">
      <stop id="stop5930" offset="0" style="stop-color:#000000;stop-opacity:1;"/>
      <stop id="stop5932" offset="1" style="stop-color:#000000;stop-opacity:0;"/>
    </linearGradient>
    <linearGradient id="linearGradient4174">
      <stop id="stop4176" offset="0" style="stop-color:#ffffff;stop-opacity:1;"/>
      <stop id="stop4178" offset="1" style="stop-color:#3e3e3e;stop-opacity:0;"/>
    </linearGradient>
    <linearGradient id="linearGradient3148" inkscape:collect="always">
      <stop id="stop3150" offset="0" style="stop-color:#000000;stop-opacity:1;"/>
      <stop id="stop3152" offset="1" style="stop-color:#000000;stop-opacity:0;"/>
    </linearGradient>
    <radialGradient cx="81.562538" cy="151.97745" fx="129.69781" fy="151.97745" gradientTransform="matrix(1,0,0,0.133333,0,131.7138)" gradientUnits="userSpaceOnUse" id="radialGradient3154" inkscape:collect="always" r="80.225449" xlink:href="#linearGradient3148"/>
    <radialGradient cx="154.17799" cy="33.309246" fx="154.17799" fy="33.309246" gradientTransform="matrix(1,0,0,0.931884,3.581214,-10.16833)" gradientUnits="userSpaceOnUse" id="radialGradient9655" inkscape:collect="always" r="11.547417" xlink:href="#linearGradient5928"/>
    <radialGradient cx="173.35292" cy="29.473955" fx="173.35292" fy="29.473955" gradientTransform="matrix(5.093182,3.710751e-2,-3.342812e-2,4.588167,-711.6483,-118.8231)" gradientUnits="userSpaceOnUse" id="radialGradient9657" inkscape:collect="always" r="7.125" xlink:href="#linearGradient4174"/>
    <radialGradient cx="150.17821" cy="56.316689" fx="150.17821" fy="56.316689" gradientTransform="matrix(7.899763,-0.133352,0.10295,6.09874,-1031.154,-297.761)" gradientUnits="userSpaceOnUse" id="radialGradient9659" inkscape:collect="always" r="4.6959705" xlink:href="#linearGradient6818"/>
    <radialGradient cx="222.09877" cy="1.2351388" fx="222.09877" fy="1.2351388" gradientTransform="matrix(2.315085,-1.392699e-2,7.510166e-2,7.192445,-419.3628,45.313564)" gradientUnits="userSpaceOnUse" id="radialGradient10545" inkscape:collect="always" r="16.390625" xlink:href="#linearGradient10539"/>
    <radialGradient cx="94.138443" cy="38.927982" fx="94.138443" fy="38.927982" gradientTransform="matrix(0.581247,5.817117e-3,-7.455762e-2,9.383173,36.03053,-309.6658)" gradientUnits="userSpaceOnUse" id="radialGradient12309" inkscape:collect="always" r="6.8733773" xlink:href="#linearGradient11428"/>
    <linearGradient gradientTransform="matrix(0.737301,-6.658052e-7,1.272726e-7,1.016243,23.72264,1.031887)" gradientUnits="userSpaceOnUse" id="linearGradient13190" inkscape:collect="always" x1="79.735275" x2="95" xlink:href="#linearGradient13184" y1="48.538783" y2="48.538783"/>
    <radialGradient cx="94.138443" cy="38.927982" fx="94.138443" fy="38.927982" gradientTransform="matrix(0.566041,4.976245e-3,-7.260836e-2,8.025401,38.46269,-251.3652)" gradientUnits="userSpaceOnUse" id="radialGradient14940" inkscape:collect="always" r="6.8733773" xlink:href="#linearGradient11428"/>
    <linearGradient gradientTransform="matrix(0.718011,5.475357e-7,-1.861064e-8,0.869189,26.47674,14.37374)" gradientUnits="userSpaceOnUse" id="linearGradient14942" inkscape:collect="always" x1="79.735275" x2="95" xlink:href="#linearGradient13184" y1="48.538783" y2="48.538783"/>
    <radialGradient cx="94.138443" cy="38.927982" fx="94.138443" fy="38.927982" gradientTransform="matrix(0.602777,4.958538e-3,-7.732142e-2,7.998709,33.70512,-255.1298)" gradientUnits="userSpaceOnUse" id="radialGradient14946" inkscape:collect="always" r="6.8733773" xlink:href="#linearGradient11428"/>
    <linearGradient gradientTransform="matrix(0.764612,-9.213433e-7,-8.915483e-8,0.866298,20.94123,9.725384)" gradientUnits="userSpaceOnUse" id="linearGradient14948" inkscape:collect="always" x1="79.735275" x2="95" xlink:href="#linearGradient13184" y1="48.538783" y2="48.538783"/>
    <radialGradient cx="77.371063" cy="64.803642" fx="77.371063" fy="64.803642" gradientTransform="matrix(0.71884,5.195072e-2,0.124003,10.14631,11.77238,-600.3243)" gradientUnits="userSpaceOnUse" id="radialGradient15831" inkscape:collect="always" r="4.1422901" xlink:href="#linearGradient15825"/>
    <radialGradient cx="64.035408" cy="72.25351" fx="64.035408" fy="72.25351" gradientTransform="matrix(0.35411,-4.17141,5.032558,-1.51988,-331.3648,448.8406)" gradientUnits="userSpaceOnUse" id="radialGradient19335" inkscape:collect="always" r="8.072001" xlink:href="#linearGradient17579"/>
    <radialGradient cx="78.344902" cy="47.896503" fx="78.344902" fy="47.896503" gradientTransform="matrix(1,0,0,0.977751,-0.984934,3.7955583)" gradientUnits="userSpaceOnUse" id="radialGradient22837" inkscape:collect="always" r="59.06985" xlink:href="#linearGradient22831"/>
    <linearGradient gradientTransform="matrix(1.040084,0,0,1,-4.812806,2.6114543)" gradientUnits="userSpaceOnUse" id="linearGradient23728" inkscape:collect="always" x1="105.58075" x2="120.06922" xlink:href="#linearGradient23722" y1="11.270861" y2="11.270861"/>
    <radialGradient cx="302.08856" cy="-10.284327" fx="302.08856" fy="-10.284327" gradientTransform="matrix(0.286164,-6.334889e-2,0.208443,0.941596,20.99885,69.803574)" gradientUnits="userSpaceOnUse" id="radialGradient25491" inkscape:collect="always" r="59.073312" xlink:href="#linearGradient25485"/>
    <linearGradient gradientTransform="translate(0,2.6114543)" gradientUnits="userSpaceOnUse" id="linearGradient26375" inkscape:collect="always" x1="114.74419" x2="141.67282" xlink:href="#linearGradient26369" y1="51.131916" y2="13.184787"/>
    <radialGradient cx="302.08856" cy="-10.284327" fx="302.08856" fy="-10.284327" gradientTransform="matrix(0.286164,-6.334889e-2,0.208443,0.941596,21.24002,69.803564)" gradientUnits="userSpaceOnUse" id="radialGradient27252" inkscape:collect="always" r="59.073312" xlink:href="#linearGradient25485"/>
    <radialGradient cx="224.46358" cy="-4.2258649" fx="224.46358" fy="-4.2258649" gradientTransform="matrix(2.315085,-1.392699e-2,7.510166e-2,7.192445,-420.3275,44.348884)" gradientUnits="userSpaceOnUse" id="radialGradient27256" inkscape:collect="always" r="16.390625" xlink:href="#linearGradient10539"/>
    <linearGradient gradientTransform="translate(-15.67613,-27.052606)" gradientUnits="userSpaceOnUse" id="linearGradient29883" inkscape:collect="always" x1="123.64483" x2="70.801071" xlink:href="#linearGradient29877" y1="146.02699" y2="24.383652"/>
    <radialGradient cx="19.006332" cy="99.120925" fx="19.006332" fy="99.120925" gradientTransform="matrix(-0.998743,-5.013679e-2,7.080488e-2,-1.410479,21.31425,249.14434)" gradientUnits="userSpaceOnUse" id="radialGradient34276" inkscape:collect="always" r="4.6031745" xlink:href="#linearGradient34264"/>
    <radialGradient cx="174.07651" cy="28.159636" fx="174.07651" fy="28.159636" gradientTransform="matrix(4.765918,0.334945,-0.309234,4.496536,-701.8065,-148.13106)" gradientUnits="userSpaceOnUse" id="radialGradient34303" inkscape:collect="always" r="7.125" xlink:href="#linearGradient4174"/>
    <radialGradient cx="18.988296" cy="99.099475" fx="18.988296" fy="99.099475" gradientTransform="matrix(1,0,0,1.329001,0,-29.992326)" gradientUnits="userSpaceOnUse" id="radialGradient8645" inkscape:collect="always" r="4.9090158" xlink:href="#linearGradient6184"/>
    <radialGradient cx="18.988296" cy="99.099475" fx="18.988296" fy="99.099475" gradientTransform="matrix(1,0,0,1.329001,0,-29.992326)" gradientUnits="userSpaceOnUse" id="radialGradient8648" inkscape:collect="always" r="4.9090158" xlink:href="#linearGradient6184"/>
    <radialGradient cx="22.596113" cy="66.948593" fx="22.596113" fy="66.948593" gradientTransform="matrix(1,0,0,0.902419,11.7966,27.362554)" gradientUnits="userSpaceOnUse" id="radialGradient8652" inkscape:collect="always" r="33.898299" xlink:href="#linearGradient2648"/>
  </defs>
  <sodipodi:namedview bordercolor="#666666" borderopacity="1.0" id="base" inkscape:current-layer="layer1" inkscape:cx="10.422191" inkscape:cy="72.031184" inkscape:document-units="px" inkscape:grid-bbox="true" inkscape:guide-bbox="true" inkscape:pageopacity="0.0" inkscape:pageshadow="2" inkscape:window-height="972" inkscape:window-width="1400" inkscape:window-x="0" inkscape:window-y="0" inkscape:zoom="2.9319705" pagecolor="#ffffff" showgrid="true" showguides="true"/>
  <g id="layer1" inkscape:groupmode="layer" inkscape:label="Layer 1">
    <path d="M 161.78799 151.97745 A 80.225449 10.696727 0 1 1  1.3370895,151.97745 A 80.225449 10.696727 0 1 1  161.78799 151.97745 z" id="path3146" inkscape:r_cx="true" inkscape:r_cy="true" sodipodi:cx="81.562538" sodipodi:cy="151.97745" sodipodi:rx="80.225449" sodipodi:ry="10.696727" sodipodi:type="arc" style="opacity:0.2213115;fill:url(#radialGradient3154);fill-opacity:1;fill-rule:nonzero;stroke:none;stroke-width:0.1;stroke-linecap:round;stroke-linejoin:round;stroke-miterlimit:4;stroke-dasharray:none;stroke-dashoffset:4;stroke-opacity:1" transform="matrix(-0.799642,0,0,0.560668,129.3725,35.170685)"/>
    <g id="g8758" inkscape:r_cx="true" inkscape:r_cy="true" transform="matrix(0.936186,5.862005e-2,-6.057727e-2,0.980456,-42.66237,10.227701)">
      <path d="M 181.67604,9.099418 L 167.54392,14.798884 L 159.38892,8.405838 C 158.31752,9.823263 157.50262,30.099195 162.49085,29.926445 C 171.6228,29.610191 178.29658,20.600703 181.67604,9.099418 z " id="path3285" inkscape:r_cx="true" inkscape:r_cy="true" sodipodi:nodetypes="cccsc" style="opacity:1;fill:#888a85;fill-opacity:1;fill-rule:evenodd;stroke:url(#radialGradient9655);stroke-width:1.64400005;stroke-linecap:round;stroke-linejoin:round;stroke-miterlimit:4;stroke-dasharray:none;stroke-opacity:1"/>
      <path d="M 181.16095,9.7597789 L 167.7547,15.166029 L 166.91095,24.603529 L 168.4422,28.759779 C 174.28842,25.536422 178.63786,18.346591 181.16095,9.7597789 z " id="path3293" inkscape:r_cx="true" inkscape:r_cy="true" style="opacity:0.51376145;fill:url(#radialGradient9657);fill-opacity:1;fill-rule:evenodd;stroke:none;stroke-width:2.14400005;stroke-linecap:round;stroke-linejoin:round;stroke-miterlimit:4;stroke-dasharray:none;stroke-opacity:1"/>
      <path d="M 159.31603,8.5972985 C 159.31184,8.6028355 159.28896,8.6224385 159.28478,8.6285485 C 159.27644,8.6419055 159.26183,8.6754455 159.25353,8.6910485 C 158.21496,10.788359 157.51898,30.297924 162.40978,30.128548 C 163.49063,30.091117 164.55544,29.930513 165.56603,29.659798 L 166.25353,14.066048 L 159.31603,8.5972985 z " id="path5936" inkscape:r_cx="true" inkscape:r_cy="true" style="opacity:0.51376145;fill:url(#radialGradient9659);fill-opacity:1;fill-rule:evenodd;stroke:none;stroke-width:1.64400005;stroke-linecap:round;stroke-linejoin:round;stroke-miterlimit:4;stroke-dasharray:none;stroke-opacity:1"/>
    </g>
    <path d="M 104.04242,3.1653314 C 95.28216,3.1586394 87.91547,8.5814961 86.41106,15.947177 C 86.40182,15.980016 86.37783,16.049503 86.36885,16.082422 C 86.36885,16.082422 80.36956,36.954002 75.80483,42.174407 C 72.222134,46.271698 7.672864,94.340185 4.35277,98.747147 C -2.659591,108.05505 6.103124,123.82204 18.463864,117.0228 C 26.612933,112.54025 79.36672,58.209351 85.98021,54.798923 C 90.45049,52.493691 112.37848,50.44369 112.37848,50.44369 C 113.58104,50.90856 106.04913,29.74156 104.14419,23.11093 C 104.69881,18.852928 104.73518,18.506356 105.60635,14.672381 C 110.67873,13.273896 120,10.817119 120,10.817119 C 116.94082,6.6845061 111.7533,3.7517184 105.70798,3.2919924 C 105.66838,3.2889794 105.61944,3.2850414 105.57988,3.2822504 C 105.35946,3.2666944 104.56125,3.2008614 104.49084,3.1994324 C 104.42973,3.1981914 104.33035,3.1857324 104.26663,3.1823824 C 104.19748,3.1816544 104.1114,3.1653834 104.04242,3.1653314 z M 14.184438,98.477797 C 17.70247,98.745337 20.606138,102.84035 20.204502,107.18701 C 19.872228,110.783 16.058102,114.07148 12.54007,113.80395 C 9.022061,113.53641 5.954625,109.2889 6.247191,105.33687 C 6.528331,101.5392 9.738137,98.139667 14.184438,98.477797 z " id="path2388" inkscape:r_cx="true" inkscape:r_cy="true" sodipodi:nodetypes="cccssssccccssssccssss" style="opacity:1;fill:#888a85;fill-opacity:1;fill-rule:evenodd;stroke:none;stroke-width:2.14400005;stroke-linecap:round;stroke-linejoin:round;stroke-miterlimit:4;stroke-dasharray:none;stroke-opacity:1"/>
    <path d="M 103.59026,3.0000062 C 94.830006,2.9933132 87.463316,8.4161701 85.958906,15.781851 C 85.949666,15.81469 85.925676,15.884177 85.916696,15.917096 C 85.916696,15.917096 79.917406,36.788676 75.352676,42.009081 C 71.769976,46.106372 7.2207095,94.174858 3.9006155,98.581817 C -3.1117445,107.88971 5.6509695,123.6567 18.011711,116.85746 C 26.16078,112.37491 78.914566,58.044025 85.528056,54.633597 C 89.998336,52.328365 111.92632,50.278364 111.92632,50.278364 C 113.12888,50.743234 105.59697,29.576234 103.69203,22.945604 C 104.24665,18.687602 104.28302,18.34103 105.15419,14.507055 C 110.22657,13.10857 119.54784,10.651793 119.54784,10.651793 C 116.48866,6.5191811 111.30114,3.5863932 105.25582,3.1266672 C 105.21622,3.1236542 105.16728,3.1197152 105.12772,3.1169252 C 104.9073,3.1013692 104.10909,3.0355352 104.03868,3.0341062 C 103.97757,3.0328652 103.87819,3.0204072 103.81447,3.0170562 C 103.74532,3.0163292 103.65924,3.0000582 103.59026,3.0000062 z M 13.732284,98.312467 C 17.250317,98.580007 20.153985,102.67502 19.752349,107.02167 C 19.420075,110.61766 15.605948,113.90614 12.087916,113.63861 C 8.5699065,113.37107 5.5024705,109.12356 5.7950375,105.17153 C 6.0761765,101.37387 9.2859825,97.974347 13.732284,98.312467 z " id="path21956" inkscape:r_cx="true" inkscape:r_cy="true" sodipodi:nodetypes="cccssssccccssssccssss" style="opacity:1;fill:url(#radialGradient22837);fill-opacity:1;fill-rule:evenodd;stroke:none;stroke-width:2.14400005;stroke-linecap:round;stroke-linejoin:round;stroke-miterlimit:4;stroke-dasharray:none;stroke-opacity:1"/>
    <path d="M 88.27122,16.82448 L 93.24531,34.474184 L 96.471442,33.483563 L 99.938645,46.31588 L 97.268498,47.260949 L 100.07979,52.551094 C 105.96289,51.774366 112.43388,49.973078 112.43388,49.973078 C 112.43827,49.974236 112.46097,49.974962 112.46511,49.975466 C 112.46899,49.97532 112.49271,49.978645 112.49634,49.977854 C 112.4992,49.975155 112.52731,49.951743 112.52992,49.948416 C 112.53202,49.943846 112.53041,49.921773 112.53226,49.916589 C 112.53549,49.904998 112.56593,49.86933 112.56818,49.855323 C 112.78196,48.023402 106.02104,28.89545 104.2373,22.653334 C 104.78897,18.395332 104.83984,18.054001 105.70635,14.220025 C 110.75161,12.821541 120,10.351911 120,10.351911 C 116.95716,6.2192971 109.93303,4.0856562 104.40327,4.4445396 C 95.71762,5.008241 89.98324,9.7790561 88.27122,16.82448 z " id="path9661" inkscape:r_cx="true" inkscape:r_cy="true" sodipodi:nodetypes="cccccccssssscccsc" style="opacity:1;fill:url(#radialGradient10545);fill-opacity:1;fill-rule:evenodd;stroke:none;stroke-width:2.14400005;stroke-linecap:round;stroke-linejoin:round;stroke-miterlimit:4;stroke-dasharray:none;stroke-opacity:1"/>
    <path d="M 103.03125,3.2553086 C 94.724378,3.6513806 87.851878,8.9585991 86.406248,16.036558 C 86.397018,16.069396 86.383978,16.128639 86.374998,16.161558 C 86.374988,16.161559 80.377238,37.034903 75.812498,42.255308 C 72.229808,46.352599 7.6638485,94.410851 4.3437485,98.817807 C -2.668612,108.1257 6.1080085,123.89828 18.468748,117.09904 C 26.617818,112.61649 79.386508,58.290736 85.999998,54.880308 C 90.470268,52.575076 112.375,50.505308 112.375,50.505308 C 112.3797,50.507124 112.40182,50.5354 112.40625,50.536558 C 112.41042,50.537062 112.43359,50.536703 112.4375,50.536558 C 112.44089,50.535127 112.46562,50.507376 112.46875,50.505308 C 112.47112,50.501357 112.49788,50.478628 112.5,50.474058 C 112.50187,50.468873 112.49838,50.448604 112.5,50.442808 C 112.50413,50.423603 112.49804,50.373642 112.5,50.349058 C 112.59882,48.249762 105.93469,29.383123 104.15625,23.192808 C 104.71086,18.934806 104.75383,18.589283 105.625,14.755308 C 110.69738,13.356825 120,10.880308 120,10.880308 C 116.94082,6.7476941 111.76407,3.8400346 105.71875,3.3803086 C 105.67915,3.3772956 105.63331,3.3518496 105.59375,3.3490586 C 105.37333,3.3335026 104.57041,3.2879876 104.5,3.2865586 C 104.43888,3.2853166 104.34497,3.2586596 104.28125,3.2553086 C 104.22074,3.2546736 104.12613,3.2584686 104.0625,3.2553086 C 103.7203,3.2550476 103.36893,3.2392086 103.03125,3.2553086 z M 104.1875,4.5053086 C 109.67551,4.2285876 116.53595,6.3747651 119.53125,10.442808 C 119.53125,10.442808 110.29527,12.919323 105.25,14.317808 C 104.38349,18.151784 104.33292,18.497306 103.78125,22.755308 C 105.55105,28.948657 112.19846,47.827638 112.09375,49.911558 C 112.09313,49.91924 112.09459,49.935652 112.09375,49.942808 C 112.08731,49.953798 112.06919,49.994923 112.0625,50.005308 C 112.06236,50.008178 112.06255,50.03319 112.0625,50.036558 C 112.05479,50.043164 112.03268,50.066459 112.03125,50.067808 C 112.02438,50.067094 112.00194,50.067735 112,50.067808 C 111.99663,50.067614 111.97156,50.068047 111.96875,50.067808 C 111.96875,50.067808 105.00811,50.41608 99.124998,51.192808 L 97.767656,48.308281 L 101.41914,46.393202 L 96.963984,32.840229 L 92.540077,33.853822 L 87.812498,16.911558 C 89.524508,9.8661341 95.251858,5.1002596 103.9375,4.5365586 C 104.0239,4.5309506 104.10039,4.5097006 104.1875,4.5053086 z M 13.062499,98.536557 C 13.425268,98.512527 13.805398,98.538747 14.187499,98.567807 C 17.705528,98.835347 20.620378,102.90864 20.218748,107.25529 C 19.886478,110.85128 16.049288,114.14782 12.531249,113.88029 C 9.0132285,113.61276 5.9574385,109.36357 6.2499985,105.41154 C 6.5069885,101.94024 9.2039885,98.792147 13.062499,98.536557 z " id="path23730" inkscape:r_cx="true" inkscape:r_cy="true" sodipodi:nodetypes="ccssssscsssssscccssssscccccsssssscccccccsccssssc" style="opacity:1;fill:url(#radialGradient25491);fill-opacity:1;fill-rule:evenodd;stroke:none;stroke-width:2.14400005;stroke-linecap:round;stroke-linejoin:round;stroke-miterlimit:4;stroke-dasharray:none;stroke-opacity:1"/>
    <path d="M 103.27242,3.2553083 C 94.965553,3.6513803 88.093053,8.9585991 86.647423,16.036558 C 86.638193,16.069396 86.625153,16.128639 86.616173,16.161558 C 86.616163,16.161559 80.618409,37.034903 76.053669,42.255308 C 72.470979,46.352599 7.9050202,94.410846 4.5849202,98.817807 C -2.4274411,108.12569 6.3491802,123.89827 18.709919,117.09903 C 26.858989,112.61648 79.627679,58.290736 86.241173,54.880308 C 90.711443,52.575076 112.61617,50.505308 112.61617,50.505308 C 112.62087,50.507124 112.64299,50.5354 112.64742,50.536558 C 112.65159,50.537062 112.67476,50.536703 112.67867,50.536558 C 112.68206,50.535127 112.70679,50.507376 112.70992,50.505308 C 112.71229,50.501357 112.73905,50.478628 112.74117,50.474058 C 112.74304,50.468873 112.73955,50.448604 112.74117,50.442808 C 112.7453,50.423603 112.73921,50.373642 112.74117,50.349058 C 112.83999,48.249762 106.17586,29.383123 104.39742,23.192808 C 104.95203,18.934806 104.995,18.589283 105.86617,14.755308 C 110.93855,13.356825 120.24117,10.880308 120.24117,10.880308 C 117.18199,6.7476941 112.00524,3.8400343 105.95992,3.3803083 C 105.92032,3.3772953 105.87448,3.3518493 105.83492,3.3490583 C 105.6145,3.3335023 104.81158,3.2879873 104.74117,3.2865583 C 104.68005,3.2853163 104.58614,3.2586593 104.52242,3.2553083 C 104.46191,3.2546733 104.3673,3.2584683 104.30367,3.2553083 C 103.96147,3.2550473 103.6101,3.2392083 103.27242,3.2553083 z M 104.42867,4.5053083 C 109.91668,4.2285873 116.77712,6.3747651 119.77242,10.442808 C 119.77242,10.442808 110.53644,12.919323 105.49117,14.317808 C 104.62466,18.151784 104.57409,18.497306 104.02242,22.755308 C 105.79222,28.948657 112.43963,47.827638 112.33492,49.911558 C 112.3343,49.91924 112.33576,49.935652 112.33492,49.942808 C 112.32848,49.953798 112.31036,49.994923 112.30367,50.005308 C 112.30353,50.008178 112.30372,50.03319 112.30367,50.036558 C 112.29596,50.043164 112.27385,50.066459 112.27242,50.067808 C 112.26555,50.067094 112.24311,50.067735 112.24117,50.067808 C 112.2378,50.067614 112.21273,50.068047 112.20992,50.067808 C 112.20992,50.067808 105.24928,50.41608 99.366173,51.192808 L 98.008823,47.584767 L 101.90149,45.91086 L 97.928673,32.599058 L 93.022423,33.130308 L 88.053673,16.911558 C 89.765683,9.8661341 95.493033,5.1002593 104.17867,4.5365583 C 104.26507,4.5309503 104.34156,4.5097003 104.42867,4.5053083 z M 13.30367,98.536557 C 13.666439,98.512527 14.046569,98.538747 14.42867,98.567807 C 17.946699,98.835347 20.861549,102.90863 20.459919,107.25528 C 20.127649,110.85127 16.290459,114.14781 12.77242,113.88028 C 9.2544002,113.61275 6.1986102,109.36356 6.4911702,105.41153 C 6.7481602,101.94024 9.4451602,98.792147 13.30367,98.536557 z " id="path27250" inkscape:r_cx="true" inkscape:r_cy="true" sodipodi:nodetypes="ccssssscsssssscccssssscccccsssssscccccccsccssssc" style="opacity:1;fill:url(#radialGradient27252);fill-opacity:1;fill-rule:evenodd;stroke:url(#linearGradient29883);stroke-width:0.44400001;stroke-linecap:round;stroke-linejoin:round;stroke-miterlimit:4;stroke-dasharray:none;stroke-opacity:1"/>
    <g id="g22839" transform="translate(0,2.6114543)">
      <rect height="13.094864" id="rect10551" inkscape:r_cx="true" inkscape:r_cy="true" style="opacity:1;fill:#2e3436;fill-opacity:1;fill-rule:evenodd;stroke:url(#radialGradient19335);stroke-width:1.54412687;stroke-linecap:round;stroke-linejoin:round;stroke-miterlimit:4;stroke-dasharray:none;stroke-opacity:1" transform="matrix(0.956291,-0.292417,0.309707,0.950832,0,0)" width="13.399776" x="68.625313" y="58"/>
      <rect height="11.043238" id="rect14950" inkscape:r_cx="true" inkscape:r_cy="true" style="opacity:1;fill:url(#radialGradient15831);fill-opacity:1;fill-rule:evenodd;stroke:none;stroke-width:1.64400005;stroke-linecap:round;stroke-linejoin:round;stroke-miterlimit:4;stroke-dasharray:none;stroke-opacity:1" transform="matrix(0.967683,-0.25217,0.307423,0.951573,0,0)" width="7.7254124" x="71.562981" y="55.691086"/>
      <rect height="1.2325668" id="rect10553" inkscape:r_cx="true" inkscape:r_cy="true" ry="0" style="opacity:1;fill:url(#radialGradient12309);fill-opacity:1;fill-rule:evenodd;stroke:url(#linearGradient13190);stroke-width:0.38432986;stroke-linecap:round;stroke-linejoin:round;stroke-miterlimit:4;stroke-dasharray:none;stroke-opacity:1" transform="matrix(0.98605,-0.16645,8.671967e-2,0.996233,0,0)" width="11.254695" x="82.51152" y="49.742821"/>
      <rect height="1.0542099" id="rect14938" inkscape:r_cx="true" inkscape:r_cy="true" ry="0" style="opacity:1;fill:url(#radialGradient14940);fill-opacity:1;fill-rule:evenodd;stroke:url(#linearGradient14942);stroke-width:0.35075644;stroke-linecap:round;stroke-linejoin:round;stroke-miterlimit:4;stroke-dasharray:none;stroke-opacity:1" transform="matrix(0.989282,-0.14602,9.906172e-2,0.995081,0,0)" width="10.960242" x="83.72757" y="56.036003"/>
      <rect height="1.0507048" id="rect14944" inkscape:r_cx="true" inkscape:r_cy="true" ry="0" style="opacity:1;fill:url(#radialGradient14946);fill-opacity:1;fill-rule:evenodd;stroke:url(#linearGradient14948);stroke-width:0.36135769;stroke-linecap:round;stroke-linejoin:round;stroke-miterlimit:4;stroke-dasharray:none;stroke-opacity:1" transform="matrix(0.990631,-0.136567,0.105988,0.994367,0,0)" width="11.671585" x="81.907768" y="51.249149"/>
    </g>
    <path d="M 105.31956,14.723891 L 119.67929,10.880324 L 120.06922,12.699668 L 105,16.884306 L 105.31956,14.723891 z " id="rect22846" inkscape:r_cx="true" inkscape:r_cy="true" sodipodi:nodetypes="ccccc" style="fill:url(#linearGradient23728);fill-opacity:1;fill-rule:evenodd;stroke:none;stroke-width:1.44400001;stroke-linecap:round;stroke-linejoin:round;stroke-miterlimit:4;stroke-opacity:1"/>
    <path d="M 112.01566,48.138708 C 116.09917,47.856374 123.47693,39.755621 126.77098,29.994861 C 126.91751,29.56069 126.76852,33.192567 126.60045,33.656317 C 123.34386,42.642051 116.98969,48.226005 112.56864,49.797647 C 112.30713,49.890612 112.36604,51.575917 112.01566,48.138708 z " id="rect25493" inkscape:r_cx="true" inkscape:r_cy="true" sodipodi:nodetypes="csssc" style="fill:url(#linearGradient26375);fill-opacity:1;fill-rule:evenodd;stroke:none;stroke-width:1.44400001;stroke-linecap:round;stroke-linejoin:round;stroke-miterlimit:4;stroke-opacity:1"/>
    <path d="M 88.994733,15.859795 L 93.004138,33.991841 L 96.953784,33.724734 L 100.66216,46.31588 L 97.268498,47.984462 L 99.115105,51.586409 C 104.99821,50.809681 111.4692,49.008393 111.4692,49.008393 C 111.47359,49.009551 111.49629,49.010277 111.50043,49.010781 C 111.50431,49.010635 111.52803,49.01396 111.53166,49.013169 C 111.53452,49.01047 111.56263,48.987058 111.56524,48.983731 C 111.56734,48.979161 111.56573,48.957088 111.56758,48.951904 C 111.57081,48.940313 111.60125,48.904645 111.6035,48.890638 C 111.81728,47.058717 105.05636,27.930765 103.27262,21.688649 C 103.82429,17.430647 103.87516,17.089316 104.74167,13.25534 C 109.78693,11.856857 118.07064,9.3872261 118.07064,9.3872261 C 115.0278,5.254612 108.96835,4.5679986 103.43859,4.926882 C 94.752935,5.4905834 90.706753,8.8143711 88.994733,15.859795 z " id="path27254" inkscape:r_cx="true" inkscape:r_cy="true" sodipodi:nodetypes="cccccccssssscccsc" style="opacity:1;fill:url(#radialGradient27256);fill-opacity:1;fill-rule:evenodd;stroke:none;stroke-width:2.14400005;stroke-linecap:round;stroke-linejoin:round;stroke-miterlimit:4;stroke-dasharray:none;stroke-opacity:1"/>
    <path d="M 5.1325753,97.782547 C 5.1325753,97.782547 71.778361,46.192218 76.223717,41.85605 C 80.492314,37.692301 86.447027,16.981372 86.447027,16.981372 C 86.447027,16.981372 88.6449,15.785854 88.096218,17.002799 C 87.344438,18.670203 79.457242,39.320084 77.93343,41.2245 C 74.46201,45.56298 56.21917,58.974278 56.21917,58.974278 L 11.329398,94.17638 L 5.1325753,97.782547 z " id="rect30766" inkscape:r_cx="true" inkscape:r_cy="true" sodipodi:nodetypes="cscssccc" style="opacity:0.3853211;fill:#000000;fill-opacity:1;fill-rule:evenodd;stroke:none;stroke-width:0.44400001;stroke-linecap:round;stroke-linejoin:round;stroke-miterlimit:4;stroke-opacity:1"/>
    <path d="M 13.109506,115.08128 C 13.109506,115.08128 8.5491635,114.55354 6.5740443,110.99673 C 4.5989226,107.43991 5.0426469,102.4678 5.0426469,102.4678 L 5.6793002,101.69021 C 5.6793002,101.69021 5.5065509,106.71453 7.257555,110.13609 C 9.0420987,113.62321 13.738962,114.43247 13.648176,114.55486 L 13.109506,115.08128 z " id="path34274" inkscape:r_cx="true" inkscape:r_cy="true" sodipodi:nodetypes="cscczcc" style="opacity:0.89449541;fill:url(#radialGradient34276);fill-opacity:1;fill-rule:evenodd;stroke:none;stroke-width:0.44400001;stroke-linecap:round;stroke-linejoin:round;stroke-miterlimit:4;stroke-opacity:1"/>
    <path d="M 112.37357,33.767355 C 112.25779,34.033678 111.50822,42.371075 111.51798,42.670572 C 111.0397,47.239661 112.00844,47.648548 112.01252,48.479483 C 112.87502,48.253362 112.26498,48.597165 113.06549,48.205204 C 113.04688,47.797689 112.36628,44.882973 112.06549,43.830204 C 112.39737,41.570226 113.23162,35.218492 113.3188,34.616972 C 112.95863,34.278255 112.82087,34.143943 112.37357,33.767355 z " id="path34280" inkscape:r_cx="true" inkscape:r_cy="true" sodipodi:nodetypes="ccccccc" style="fill:#000000;fill-opacity:1;fill-rule:evenodd;stroke:none;stroke-width:1.57810318;stroke-linecap:round;stroke-linejoin:round;stroke-miterlimit:4;stroke-dasharray:none;stroke-opacity:1"/>
    <path d="M 126.23984,30.275301 L 113.3616,34.790016 L 112,43.993609 L 113.18176,48.158391 C 118.85017,45.340737 123.3576,38.546389 126.23984,30.275301 z " id="path34301" inkscape:r_cx="true" inkscape:r_cy="true" style="opacity:0.51376145;fill:url(#radialGradient34303);fill-opacity:1;fill-rule:evenodd;stroke:none;stroke-width:2.14400005;stroke-linecap:round;stroke-linejoin:round;stroke-miterlimit:4;stroke-dasharray:none;stroke-opacity:1"/>
    <path d="M 14.001598,95.694932 C 19.476462,95.05775 24.675094,102.24908 22.727994,108.11896 C 27.15475,105.11486 79.932538,56.445831 81.222194,53.937728 C 83.197069,50.097024 79.757063,45.932393 75.809911,47.15545 C 73.05679,48.008525 13.645241,95.736406 14.001598,95.694932 z " id="path30758" inkscape:r_cx="true" inkscape:r_cy="true" sodipodi:nodetypes="ccsss" style="fill:#888a85;fill-opacity:1;fill-rule:evenodd;stroke:none;stroke-width:0.44400001;stroke-linecap:round;stroke-linejoin:round;stroke-miterlimit:4;stroke-dasharray:none;stroke-opacity:1"/>
    <path d="M 14.001598,95.694932 C 19.476462,95.05775 24.675094,102.24908 22.727994,108.11896 C 27.15475,105.11486 79.932538,56.445831 81.222194,53.937728 C 83.197069,50.097024 79.757063,45.932393 75.809911,47.15545 C 73.05679,48.008525 13.645241,95.736406 14.001598,95.694932 z " id="path7295" inkscape:r_cx="true" inkscape:r_cy="true" sodipodi:nodetypes="ccsss" style="opacity:0.8;fill:#000000;fill-opacity:1;fill-rule:evenodd;stroke:none;stroke-width:0.44400001;stroke-linecap:round;stroke-linejoin:round;stroke-miterlimit:4;stroke-dasharray:none;stroke-opacity:1"/>
    <path d="M 14.001598,95.694932 C 19.476462,95.05775 24.675094,102.24908 22.727994,108.11896 C 27.15475,105.11486 79.932538,56.445831 81.222194,53.937728 C 83.197069,50.097024 79.757063,45.932393 75.809911,47.15545 C 73.05679,48.008525 13.645241,95.736406 14.001598,95.694932 z " id="path1773" inkscape:r_cx="true" inkscape:r_cy="true" sodipodi:nodetypes="ccsss" style="opacity:0.5;fill:url(#radialGradient8652);fill-opacity:1;fill-rule:evenodd;stroke:none;stroke-width:0.44400001;stroke-linecap:round;stroke-linejoin:round;stroke-miterlimit:4;stroke-dasharray:none;stroke-opacity:1"/>
    <path d="M 75.712037,47.265941 C 76.027958,47.111958 78.658616,46.120133 80.649223,48.570054 C 82.348427,50.661334 81.840015,52.524331 81.077556,54.160745 C 80.709346,54.95101 56.424562,77.714654 52.056971,81.863262 C 49.909313,83.903241 42.609885,90.501287 35.906481,96.601267 C 29.143376,102.75557 22.856893,108.03812 22.856893,108.03812 C 22.856893,108.03812 80.26202,55.126578 80.773398,53.542911 C 81.523049,51.221346 80.715,50.343342 80.066717,49.483765 C 79.406016,48.607722 78.178703,47.563681 76.302883,47.719271 C 73.716103,47.93383 15.135724,95.366124 14.109137,95.634853 C 14.109137,95.634853 28.193777,84.110629 43.011826,72.302403 C 57.829874,60.494177 73.381332,48.401949 75.712037,47.265941 z " id="path2271" inkscape:r_cx="true" inkscape:r_cy="true" sodipodi:nodetypes="csssscszscss" style="opacity:0.40366971;fill:#2e3436;fill-opacity:1;fill-rule:evenodd;stroke:none;stroke-width:0.44400001;stroke-linecap:round;stroke-linejoin:round;stroke-miterlimit:4;stroke-opacity:1"/>
    <path d="M 14.5672,95.208322 C 14.5672,95.208322 18.812814,94.694186 21.86203,98.696947 C 25.196745,103.07448 23.42935,107.52458 23.42935,107.52458 L 22.708866,108.235 C 22.708866,108.235 23.275991,106.51743 23.102131,104.73541 C 22.92827,102.95338 22.311857,101.06427 21.05325,99.442177 C 19.812976,97.843697 18.581462,96.757027 17.158981,96.224657 C 15.736501,95.69229 14.037787,95.714227 14.080053,95.650828 L 14.5672,95.208322 z " id="path2660" inkscape:r_cx="true" inkscape:r_cy="true" sodipodi:nodetypes="csccszscc" style="fill:url(#radialGradient8648);fill-opacity:1;fill-rule:evenodd;stroke:none;stroke-width:0.44400001;stroke-linecap:round;stroke-linejoin:round;stroke-miterlimit:4;stroke-opacity:1"/>
    <path d="M 14.5672,95.208322 C 14.5672,95.208322 18.812814,94.694186 21.86203,98.696947 C 25.196745,103.07448 23.42935,107.52458 23.42935,107.52458 L 22.708866,108.235 C 22.708866,108.235 23.275991,106.51743 23.102131,104.73541 C 22.92827,102.95338 22.311857,101.06427 21.05325,99.442177 C 19.812976,97.843697 18.581462,96.757027 17.158981,96.224657 C 15.736501,95.69229 14.037787,95.714227 14.080053,95.650828 L 14.5672,95.208322 z " id="path6192" inkscape:r_cx="true" inkscape:r_cy="true" sodipodi:nodetypes="csccszscc" style="fill:url(#radialGradient8645);fill-opacity:1;fill-rule:evenodd;stroke:none;stroke-width:0.44400001;stroke-linecap:round;stroke-linejoin:round;stroke-miterlimit:4;stroke-opacity:1"/>
    <path d="M -228.9185,-67.271774 L -228.9185,-70.066483 L -228.9185,-67.271774 z " id="path2276" sodipodi:nodetypes="ccc" style="fill:white;fill-opacity:0.75688076;fill-rule:nonzero;stroke:none;stroke-width:0.5;stroke-linecap:round;stroke-linejoin:round;stroke-miterlimit:4;stroke-dasharray:none;stroke-dashoffset:4;stroke-opacity:1"/>
    <path d="M 65.6909,-129.46266 L 65.6909,-132.25737 L 65.6909,-129.46266 z " id="path2191" sodipodi:nodetypes="ccc" style="fill:white;fill-opacity:0.75688076;fill-rule:nonzero;stroke:none;stroke-width:0.5;stroke-linecap:round;stroke-linejoin:round;stroke-miterlimit:4;stroke-dasharray:none;stroke-dashoffset:4;stroke-opacity:1"/>
    <path d="M -52.477129,-94.134134 C -57.816729,-94.134134 -62.133379,-89.817481 -62.133379,-84.477884 L -62.133379,-76.102884 L -110.38338,-76.102884 C -115.72298,-76.102884 -120.03963,-71.817477 -120.03963,-66.477884 L -120.03963,-25.727876 C -120.03963,-20.388286 -115.72298,-16.102876 -110.38338,-16.102876 L -52.477129,-16.102876 L -14.91463,-16.102876 L -13.85213,-16.102876 C -8.51253,-16.102876 -4.22713,-20.388276 -4.22713,-25.727876 L -4.22713,-84.477884 C -4.22713,-89.817479 -8.51254,-94.134134 -13.85213,-94.134134 L -52.477129,-94.134134 z " id="path2860" style="opacity:0.06147539;fill:none;fill-opacity:1;fill-rule:nonzero;stroke:none;stroke-width:1;stroke-linecap:round;stroke-linejoin:round;stroke-miterlimit:4;stroke-dasharray:none;stroke-dashoffset:4;stroke-opacity:1"/>
    <path d="M -91.3174,-199.09776 L -91.3174,-201.89247 L -91.3174,-199.09776 z " id="path2985" sodipodi:nodetypes="ccc" style="fill:white;fill-opacity:0.75688076;fill-rule:nonzero;stroke:none;stroke-width:0.5;stroke-linecap:round;stroke-linejoin:round;stroke-miterlimit:4;stroke-dasharray:none;stroke-dashoffset:4;stroke-opacity:1"/>
    <path d="M -210.8196,-285.72801 L -210.8196,-288.52272 L -210.8196,-285.72801 z " id="path3206" sodipodi:nodetypes="ccc" style="fill:white;fill-opacity:0.75688076;fill-rule:nonzero;stroke:none;stroke-width:0.5;stroke-linecap:round;stroke-linejoin:round;stroke-miterlimit:4;stroke-dasharray:none;stroke-dashoffset:4;stroke-opacity:1"/>
    <g id="layer4" inkscape:label="box" style="display:inline" transform="translate(-27.868,-141.1464)"/>
    <g id="layer5" inkscape:label="zip_app" style="display:inline" transform="translate(-27.868,-141.1464)"/>
    <path d="M 35.7718,-219.97274 L 35.7718,-222.76745 L 35.7718,-219.97274 z " id="path3946" sodipodi:nodetypes="ccc" style="fill:white;fill-opacity:0.75688076;fill-rule:nonzero;stroke:none;stroke-width:0.5;stroke-linecap:round;stroke-linejoin:round;stroke-miterlimit:4;stroke-dasharray:none;stroke-dashoffset:4;stroke-opacity:1"/>
    <path d="M -56.852646,-146.07906 L -56.852646,-147.6058 L -56.852646,-146.07906 z " id="path1561" sodipodi:nodetypes="ccc" style="fill:white;fill-opacity:0.75688076;fill-rule:nonzero;stroke:none;stroke-width:0.5;stroke-linecap:round;stroke-linejoin:round;stroke-miterlimit:4;stroke-dasharray:none;stroke-dashoffset:4;stroke-opacity:1"/>
    <rect height="0" id="rect1327" style="opacity:0.57786889;fill:white;fill-opacity:1;fill-rule:nonzero;stroke:none;stroke-width:3.63199997;stroke-linecap:round;stroke-linejoin:round;stroke-miterlimit:4;stroke-dasharray:none;stroke-dashoffset:4;stroke-opacity:1" width="1" x="-114.33738" y="-202.67905"/>
    <rect height="0" id="rect2482" style="opacity:0.57786889;fill:white;fill-opacity:1;fill-rule:nonzero;stroke:none;stroke-width:3.63199997;stroke-linecap:round;stroke-linejoin:round;stroke-miterlimit:4;stroke-dasharray:none;stroke-dashoffset:4;stroke-opacity:1" width="1" x="-149.4642" y="-230.20667"/>
    <path d="M -308.40162,-303.42273 L -308.40162,-306.21744 L -308.40162,-303.42273 z " id="path2494" sodipodi:nodetypes="ccc" style="fill:white;fill-opacity:0.75688076;fill-rule:nonzero;stroke:none;stroke-width:0.5;stroke-linecap:round;stroke-linejoin:round;stroke-miterlimit:4;stroke-dasharray:none;stroke-dashoffset:4;stroke-opacity:1"/>
    <g id="g4640" style="opacity:0.40163933" transform="matrix(-0.782995,0,0,0.650879,-2631.26,383.0949)"/>
    <g id="g4646" style="opacity:0.40163933" transform="matrix(-0.782995,0,0,0.650879,-2631.26,383.0949)"/>
    <g id="g4730" style="opacity:0.40163933" transform="matrix(1,0,0,0.650879,569.7028,390.4227)"/>
    <g id="g4748" style="opacity:0.40163933" transform="matrix(1,0,0,0.650879,569.7028,390.4227)"/>
  </g>
</svg>
