<?xml version="1.0" encoding="iso-8859-1"?>
<!-- Generator: Adobe Illustrator 19.0.0, SVG Export Plug-In . SVG Version: 6.00 Build 0)  -->
<svg version="1.1" id="Layer_1" xmlns="http://www.w3.org/2000/svg" xmlns:xlink="http://www.w3.org/1999/xlink" x="0px" y="0px"
	 viewBox="0 0 504.505 504.505" style="enable-background:new 0 0 504.505 504.505;" xml:space="preserve">
<path style="fill:#FFC52F;" d="M437.333,70.505c9.6,11.2,9.2,28-1.2,38.4c-5.2,5.2-12.4,8.4-20,8.4c-6.8,0-13.2-2.4-19.6-8.8
	l-288.8,288.8l89.6,90.4c7.2,7.2,16.8,11.2,26.8,11.2s19.6-4,26.8-11.2l226.4-226.4c15.2-15.2,24.4-44.8,20.4-65.6l-22.8-120
	c-2-10-7.2-19.6-16-28.8l-22.4,22.4C437.733,70.105,437.333,70.505,437.333,70.505z"/>
<path style="fill:#F0C960;" d="M396.133,68.905c5.2-5.2,12.4-8.4,20-8.4c6.8,0,13.6,2.4,18.4,7.2c0,0,0-0.4,2.8,0.4l22.4-22.4
	c-10.4-8.4-20-13.6-30-15.6l-120-22.8c-3.2-0.8-6.8-0.8-10.4-0.8c-20,0-42.8,8.8-55.2,21.2l-226.4,226.4
	c-7.2,7.2-11.2,16.8-11.2,26.8s4,19.6,11.2,26.8l89.6,89.6l288.8-288.8C385.333,96.505,385.733,79.705,396.133,68.905z"/>
<path style="fill:#F4EFEF;" d="M416.133,113.305c6.4,0,12.4-2.4,17.2-7.2c9.6-9.6,9.6-24.8,0-34.4c-4.4-4.4-10.8-7.2-17.2-7.2
	s-12.4,2.4-17.2,7.2c-9.6,9.6-9.6,24.8,0,34.4C403.333,110.905,409.733,113.305,416.133,113.305z"/>
<path d="M224.133,504.505c-11.2,0-22.4-4.4-31.2-12.8l-180-180c-8.4-8.4-12.8-19.2-12.8-31.2c0-11.6,4.4-22.8,12.8-31.2l226.4-226.4
	c16.4-16.4,48.4-26,71.2-22l120,22.8c23.2,4.4,45.6,26.8,50,50l22.8,120c4.4,22.8-5.6,54.8-22,71.2l-226.4,226.4l0,0
	C246.533,500.105,235.333,504.505,224.133,504.505z M299.333,8.505c-18.8,0-41.6,8.4-54,20.4l-226.4,226.4
	c-6.8,6.8-10.4,15.6-10.4,25.2s3.6,18.8,10.4,25.2l180,180c14,14,36.8,14,50.8,0l226.4-226.4c14.4-14.4,23.6-43.6,19.6-64l-22.8-120
	c-3.6-20-23.6-39.6-43.6-43.6l-120-22.8C306.133,8.905,302.533,8.505,299.333,8.505z"/>
<path d="M416.133,119.305c-16.8,0-30.4-13.6-30.4-30.4s13.6-30.4,30.4-30.4s30.4,13.6,30.4,30.4
	C446.133,105.705,432.933,119.305,416.133,119.305z M416.133,66.905c-12.4,0-22.4,10-22.4,22.4s10,22.4,22.4,22.4s22.4-10,22.4-22.4
	C438.133,76.505,428.533,66.905,416.133,66.905z"/>
<path d="M106.133,402.905c-1.2,0-2-0.4-2.8-1.2c-1.6-1.6-1.6-4,0-5.6l54-54c1.6-1.6,4-1.6,5.6,0s1.6,4,0,5.6l-54,54
	C108.133,402.505,106.933,402.905,106.133,402.905z"/>
<path d="M192.133,316.905c-1.2,0-2-0.4-2.8-1.2c-1.6-1.6-1.6-4,0-5.6l205.6-205.6c1.6-1.6,4-1.6,5.6,0s1.6,4,0,5.6l-205.6,205.6
	C194.133,316.505,192.933,316.905,192.133,316.905z"/>
<g>
</g>
<g>
</g>
<g>
</g>
<g>
</g>
<g>
</g>
<g>
</g>
<g>
</g>
<g>
</g>
<g>
</g>
<g>
</g>
<g>
</g>
<g>
</g>
<g>
</g>
<g>
</g>
<g>
</g>
</svg>
