<?xml version="1.0" encoding="iso-8859-1"?>
<!-- Generator: Adobe Illustrator 19.0.0, SVG Export Plug-In . SVG Version: 6.00 Build 0)  -->
<svg version="1.1" id="Layer_1" xmlns="http://www.w3.org/2000/svg" xmlns:xlink="http://www.w3.org/1999/xlink" x="0px" y="0px"
	 viewBox="0 0 512 512" style="enable-background:new 0 0 512 512;" xml:space="preserve">
<g>
	<g>
		<path d="M508.053,199.349l-50.258-67.348l26.988-79.582c2.429-7.164,0.58-15.086-4.768-20.435
			c-5.349-5.349-13.271-7.197-20.435-4.768l-79.582,26.988L312.65,3.947c-6.061-4.524-14.168-5.215-20.908-1.781
			c-6.74,3.434-10.946,10.398-10.849,17.961l1.074,84.026l-68.611,48.52c-6.177,4.368-9.336,11.863-8.153,19.335
			c1.184,7.471,6.506,13.624,13.73,15.868l58.806,18.279L5.822,478.073c-7.761,7.761-7.761,20.344,0,28.105
			C9.702,510.059,14.788,512,19.873,512c5.085,0,10.172-1.94,14.052-5.822l271.917-271.917l18.279,58.806
			c2.244,7.223,8.397,12.545,15.868,13.73c1.04,0.164,2.08,0.245,3.112,0.245c6.385,0,12.463-3.083,16.223-8.398l48.52-68.611
			l84.026,1.074c7.585,0.078,14.527-4.11,17.962-10.849C513.267,213.519,512.578,205.413,508.053,199.349z M397.907,190.156
			c-6.586-0.125-12.704,3.055-16.48,8.396l-31.302,44.263l-16.092-51.77c-1.941-6.245-6.832-11.137-13.078-13.078l-51.77-16.092
			l44.263-31.302c5.341-3.777,8.481-9.939,8.396-16.48l-0.693-54.209L364.6,92.307c5.241,3.911,12.072,4.993,18.269,2.894
			l51.341-17.41l-17.41,51.341c-2.1,6.195-1.019,13.026,2.894,18.269l32.424,43.448L397.907,190.156z"/>
	</g>
</g>
<g>
</g>
<g>
</g>
<g>
</g>
<g>
</g>
<g>
</g>
<g>
</g>
<g>
</g>
<g>
</g>
<g>
</g>
<g>
</g>
<g>
</g>
<g>
</g>
<g>
</g>
<g>
</g>
<g>
</g>
</svg>
